<?xml version="1.0" encoding="utf-8"?>
<!-- Generator: Adobe Illustrator 24.0.2, SVG Export Plug-In . SVG Version: 6.00 Build 0)  -->
<svg version="1.1" id="Layer_1" xmlns="http://www.w3.org/2000/svg" xmlns:xlink="http://www.w3.org/1999/xlink" x="0px" y="0px"
	 viewBox="0 0 195 115" style="enable-background:new 0 0 195 115;" xml:space="preserve">
<style type="text/css">
	.st0{fill:#008DE4;}
</style>
<title>dash_instantSend_icon</title>
<g>
	<path class="st0" d="M16.5,112.1c-1.5-0.7-2.6-1.7-3.4-3.1c-0.8-1.3-1.2-2.8-1.2-4.5c0-2.3,0.5-4.4,1.6-6.2c1-1.9,2.5-3.3,4.4-4.4
		c1.9-1.1,4.1-1.6,6.5-1.6c1.8,0,3.3,0.3,4.7,0.9s2.4,1.4,3.1,2.5L29.4,98c-1.1-1.6-2.9-2.4-5.2-2.4c-1.7,0-3.2,0.4-4.4,1.2
		c-1.3,0.8-2.3,1.8-3,3.1c-0.7,1.3-1,2.8-1,4.4c0,1.7,0.6,3.1,1.7,4.1c1.1,1,2.7,1.5,4.7,1.5c2.3,0,4.3-0.8,5.8-2.3l2.2,2.4
		c-1,1.1-2.2,1.9-3.6,2.5c-1.4,0.5-3,0.8-4.7,0.8C19.7,113.2,18,112.9,16.5,112.1z"/>
	<path class="st0" d="M47.9,98.6c1,0.9,1.5,2.2,1.5,3.9c0,0.5-0.1,1.1-0.2,1.8l-1.7,8.6h-3.6l1.7-8.5c0.1-0.4,0.1-0.8,0.1-1.2
		c0-1.9-1-2.8-3.1-2.8c-1.3,0-2.4,0.4-3.3,1.1c-0.9,0.7-1.5,1.9-1.8,3.3l-1.6,8h-3.6l4.3-21.5h3.6L38.6,99c1.3-1.1,3-1.7,5.1-1.7
		C45.5,97.3,46.8,97.7,47.9,98.6z"/>
	<path class="st0" d="M70.4,97.4l-3.1,15.5h-3.5l0.3-1.6c-1.4,1.2-3,1.8-5,1.8c-1.3,0-2.4-0.3-3.5-0.8c-1-0.5-1.9-1.3-2.5-2.4
		s-0.9-2.2-0.9-3.6c0-1.7,0.4-3.3,1.1-4.7c0.8-1.4,1.8-2.5,3.1-3.2c1.3-0.8,2.8-1.2,4.5-1.2c2.5,0,4.2,0.8,5.3,2.5l0.4-2.3H70.4z
		 M62.8,109.3c0.8-0.5,1.4-1.2,1.9-2.1c0.5-0.9,0.7-1.9,0.7-3c0-1.2-0.4-2.2-1.1-2.9c-0.7-0.7-1.7-1-3-1c-1,0-1.9,0.2-2.7,0.7
		s-1.4,1.2-1.9,2.1s-0.7,1.9-0.7,3c0,1.2,0.4,2.2,1.1,2.9c0.7,0.7,1.7,1,3,1C61.1,110,62,109.8,62.8,109.3z"/>
	<path class="st0" d="M75.2,97.4h3.6l-3.1,15.5h-3.6L75.2,97.4z M76.3,94.3c-0.4-0.4-0.6-0.9-0.6-1.4c0-0.7,0.2-1.2,0.7-1.7
		c0.5-0.4,1-0.7,1.8-0.7c0.6,0,1.2,0.2,1.6,0.6c0.4,0.4,0.6,0.8,0.6,1.4c0,0.7-0.2,1.3-0.7,1.7c-0.5,0.4-1,0.7-1.8,0.7
		C77.2,94.9,76.7,94.7,76.3,94.3z"/>
	<path class="st0" d="M96.1,98.6c1,0.9,1.5,2.2,1.5,3.9c0,0.5-0.1,1.1-0.2,1.9l-1.7,8.6h-3.6l1.7-8.5c0.1-0.4,0.1-0.8,0.1-1.2
		c0-1.9-1-2.8-3.1-2.8c-1.3,0-2.4,0.4-3.3,1.1c-0.9,0.7-1.5,1.9-1.8,3.3l-1.6,8h-3.6l3.1-15.5H87l-0.3,1.7c1.4-1.3,3.2-1.9,5.3-1.9
		C93.7,97.3,95.1,97.7,96.1,98.6z"/>
	<path class="st0" d="M104.8,92.6h3.8l-3.4,17.1h10.6l-0.6,3.2h-14.4L104.8,92.6z"/>
	<path class="st0" d="M121.3,112.3c-1.1-0.6-2-1.4-2.6-2.4s-0.9-2.2-0.9-3.6c0-1.7,0.4-3.3,1.2-4.6c0.8-1.4,1.9-2.5,3.3-3.2
		s3-1.2,4.7-1.2c1.5,0,2.8,0.3,4,0.8c1.1,0.6,2,1.4,2.6,2.4c0.6,1,0.9,2.2,0.9,3.6c0,1.7-0.4,3.3-1.2,4.6c-0.8,1.4-1.9,2.5-3.3,3.2
		c-1.4,0.8-3,1.2-4.7,1.2C123.7,113.1,122.4,112.8,121.3,112.3z M128.2,109.3c0.8-0.5,1.4-1.2,1.9-2.1s0.7-1.9,0.7-3
		c0-1.2-0.4-2.2-1.1-2.9c-0.7-0.7-1.7-1-3-1c-1,0-1.9,0.2-2.7,0.7c-0.8,0.5-1.4,1.2-1.9,2.1s-0.7,1.9-0.7,3c0,1.2,0.4,2.2,1.1,2.9
		c0.7,0.7,1.7,1,3,1C126.5,110,127.4,109.8,128.2,109.3z"/>
	<path class="st0" d="M140,112.3c-1.2-0.6-2-1.4-2.7-2.4c-0.6-1-0.9-2.2-0.9-3.6c0-1.7,0.4-3.3,1.2-4.6c0.8-1.4,1.9-2.5,3.3-3.2
		c1.4-0.8,3-1.2,4.8-1.2c1.6,0,2.9,0.3,4,0.9c1.1,0.6,2,1.5,2.6,2.7l-3.1,1.6c-0.7-1.4-2-2.1-3.9-2.1c-1,0-1.9,0.2-2.7,0.7
		c-0.8,0.5-1.4,1.2-1.9,2.1s-0.7,1.9-0.7,3c0,1.2,0.4,2.2,1.1,2.9c0.7,0.7,1.7,1,3,1c0.9,0,1.7-0.2,2.4-0.5c0.7-0.4,1.3-0.9,1.8-1.6
		l2.7,1.8c-0.7,1.1-1.7,1.9-3,2.5c-1.3,0.6-2.6,0.9-4.1,0.9C142.5,113.1,141.2,112.8,140,112.3z"/>
	<path class="st0" d="M163.6,104.1l5.5,8.8h-4.2l-4.1-6.7l-3.2,2.6l-0.8,4.1H153l4.3-21.5h3.6l-2.6,12.8l8.5-6.8h4.9L163.6,104.1z"
		/>
	<path class="st0" d="M172.1,112.7c-1.2-0.3-2.1-0.7-2.8-1.2l1.5-2.8c0.6,0.5,1.4,0.8,2.4,1.1c1,0.3,2,0.4,3,0.4
		c1.2,0,2-0.2,2.6-0.5s0.9-0.8,0.9-1.4c0-0.5-0.2-0.8-0.7-1c-0.5-0.2-1.3-0.4-2.3-0.7c-1.1-0.2-2-0.4-2.7-0.7
		c-0.7-0.2-1.3-0.6-1.8-1.2c-0.5-0.6-0.8-1.3-0.8-2.3c0-1.6,0.7-2.9,2-3.8c1.3-0.9,3.1-1.4,5.4-1.4c1.1,0,2.1,0.1,3.1,0.4
		c1,0.2,1.8,0.6,2.5,1l-1.3,2.8c-0.6-0.4-1.4-0.7-2.2-0.9c-0.8-0.2-1.6-0.3-2.4-0.3c-1.1,0-2,0.2-2.6,0.5s-0.9,0.8-0.9,1.4
		c0,0.5,0.3,0.9,0.8,1.1c0.5,0.2,1.3,0.5,2.4,0.7c1.1,0.2,2,0.4,2.7,0.7c0.7,0.2,1.3,0.6,1.8,1.2c0.5,0.5,0.8,1.3,0.8,2.2
		c0,1.7-0.7,2.9-2,3.9c-1.4,0.9-3.2,1.4-5.4,1.4C174.6,113.1,173.3,113,172.1,112.7z"/>
</g>
<path class="st0" d="M56.1,10.8c-34.3,0-39.7,23.8-42.9,38l-0.1,0.6C9,67.3,7.7,74.9,7.6,75l-0.4,2.5h131.8
	c34.3,0,39.6-23.8,42.8-38l0.1-0.6c4.1-18,5.4-25.6,5.5-25.6l0.4-2.5L56.1,10.8z M13.2,72.7c0.5-2.3,1.4-6.2,2.9-12.1l0.1-0.3
	c2-8.1,4.7-19.3,23.6-19.3h78.5c-0.5,2.3-1.4,6.2-2.9,12.1l-0.1,0.3c-2,8.1-4.7,19.3-23.6,19.3H13.2z M177.8,38l-0.1,0.6
	c-3.1,13.8-7.8,34.7-38.7,34.7h-31.4c8.4-4.8,10.5-13.5,11.8-18.9l0.1-0.3c2.6-10.4,3.4-14.6,3.4-14.8l0.5-2.5H39.7
	c-10.9,0-17.3,3.6-21.2,8.1C21.9,31.4,28.6,15,56.1,15h126.6C182.1,18.5,180.5,25.9,177.8,38z"/>
</svg>
