<svg width="16" height="14" viewBox="0 0 16 14" fill="none" xmlns="http://www.w3.org/2000/svg">
<path id="envelope" d="M12.6667 0.333496H3.33333C1.49333 0.333496 0 1.82683 0 3.66683V10.3335C0 12.1735 1.49333 13.6668 3.33333 13.6668H12.6667C14.5067 13.6668 16 12.1735 16 10.3335V3.66683C16 1.82683 14.5067 0.333496 12.6667 0.333496ZM13.6867 4.90016L9.41333 7.56683C8.98667 7.84016 8.49333 7.9735 8 7.9735C7.50667 7.9735 7.01333 7.84016 6.58667 7.56683L2.31333 4.90016C2 4.70683 1.90667 4.2935 2.1 3.98016C2.29333 3.66683 2.70667 3.5735 3.02 3.76683L7.29333 6.44016C7.72 6.70683 8.28 6.70683 8.70667 6.44016L12.98 3.76683C13.2933 3.5735 13.7067 3.66683 13.9 3.98016C14.0933 4.2935 14 4.70683 13.6867 4.90016Z" fill="#008DE4"/>
</svg>
