<svg width="21" height="20" viewBox="0 0 21 20" fill="none" xmlns="http://www.w3.org/2000/svg">
<g clip-path="url(#clip0_2921_5813)">
<path d="M10.75 20C16.2728 20 20.75 15.5228 20.75 10C20.75 4.47715 16.2728 0 10.75 0C5.22715 0 0.75 4.47715 0.75 10C0.75 15.5228 5.22715 20 10.75 20Z" fill="#0052B4"/>
<path d="M10.7465 3.91309L11.0703 4.90953H12.1179L11.2703 5.52535L11.5941 6.5218L10.7465 5.90594L9.89883 6.5218L10.2226 5.52535L9.375 4.90953H10.4227L10.7465 3.91309Z" fill="#FFDA44"/>
<path d="M6.4448 5.69582L7.3784 6.17145L8.11922 5.43066L7.95527 6.46543L8.88883 6.94109L7.85402 7.105L7.69012 8.13984L7.21445 7.20629L6.17969 7.37023L6.92051 6.62941L6.4448 5.69582Z" fill="#FFDA44"/>
<path d="M4.66406 9.9999L5.66051 9.67611V8.62842L6.27629 9.47607L7.27277 9.15228L6.65687 9.9999L7.27277 10.8475L6.27629 10.5238L5.66051 11.3714V10.3237L4.66406 9.9999Z" fill="#FFDA44"/>
<path d="M6.4448 14.3038L6.92047 13.3703L6.17969 12.6294L7.21449 12.7934L7.69008 11.8599L7.85402 12.8947L8.88879 13.0586L7.95535 13.5342L8.11922 14.569L7.3784 13.8282L6.4448 14.3038Z" fill="#FFDA44"/>
<path d="M10.7465 16.0871L10.4227 15.0907H9.375L10.2227 14.4749L9.89883 13.4785L10.7465 14.0943L11.5941 13.4785L11.2703 14.4749L12.1179 15.0907H11.0702L10.7465 16.0871Z" fill="#FFDA44"/>
<path d="M15.0533 14.3038L14.1198 13.8282L13.3789 14.569L13.5429 13.5342L12.6094 13.0586L13.6441 12.8947L13.808 11.8599L14.2837 12.7934L15.3184 12.6294L14.5776 13.3703L15.0533 14.3038Z" fill="#FFDA44"/>
<path d="M16.8391 9.9999L15.8427 10.3237V11.3714L15.2268 10.5237L14.2305 10.8475L14.8463 9.9999L14.2305 9.15228L15.2269 9.47607L15.8427 8.62842V9.67615L16.8391 9.9999Z" fill="#FFDA44"/>
<path d="M15.0533 5.69578L14.5777 6.62938L15.3185 7.3702L14.2836 7.20621L13.808 8.13977L13.6441 7.10496L12.6094 6.94102L13.5429 6.46539L13.3789 5.43066L14.1198 6.17145L15.0533 5.69578Z" fill="#FFDA44"/>
</g>
<defs>
<clipPath id="clip0_2921_5813">
<rect width="20" height="20" fill="white" transform="translate(0.75)"/>
</clipPath>
</defs>
</svg>
