<svg width="14" height="22" viewBox="0 0 14 22" fill="none" xmlns="http://www.w3.org/2000/svg">
<path d="M9 1H5C2.79086 1 1 2.79086 1 5V17C1 19.2091 2.79086 21 5 21H9C11.2091 21 13 19.2091 13 17V5C13 2.79086 11.2091 1 9 1Z" stroke="#191C1F" stroke-width="1.5" stroke-linecap="round" stroke-linejoin="round"/>
<path d="M9 21H5" stroke="#191C1F" stroke-width="1.5" stroke-linecap="round" stroke-linejoin="round"/>
<path d="M2.82 20.35C2.32 19.89 2 19.23 2 18.5C2 17.81 2.28 17.18 2.73 16.73C3.18 16.28 3.81 16 4.5 16H9.5C10.88 16 12 17.12 12 18.5C12 19.19 11.72 19.82 11.27 20.27C11.24 20.3 11.21 20.33 11.18 20.35" stroke="#191C1F" stroke-width="1.5" stroke-linecap="round" stroke-linejoin="round"/>
<circle cx="7" cy="4" r="0.75" fill="#191C1F"/>
</svg>
