<?xml version="1.0" encoding="UTF-8"?>
<svg width="11px" height="23px" viewBox="0 0 11 23" version="1.1" xmlns="http://www.w3.org/2000/svg" xmlns:xlink="http://www.w3.org/1999/xlink">
    <!-- Generator: Sketch 51.3 (57544) - http://www.bohemiancoding.com/sketch -->
    <title>Shape 3</title>
    <desc>Created with Sketch.</desc>
    <defs></defs>
    <g id="Symbols" stroke="none" stroke-width="1" fill="none" fill-rule="evenodd">
        <g id="Footer_grid" transform="translate(-735.000000, -621.000000)" fill="#FFFFFF">
            <g id="Group-18">
                <path d="M737.808032,643.99979 L737.808032,633.207578 L735,633.207578 L735,629.321719 L737.808032,629.321719 L737.808032,626.002844 C737.808032,623.394798 739.46677,621 743.28874,621 C744.836263,621 745.980811,621.150763 745.980811,621.150763 L745.890435,624.77934 C745.890435,624.77934 744.723397,624.767807 743.449888,624.767807 C742.071561,624.767807 741.850781,625.413214 741.850781,626.484698 C741.850781,627.33161 741.850781,624.67953 741.850781,629.321928 L746,629.321928 L745.819456,633.207787 L741.850781,633.207787 L741.850781,644 L737.808032,644 L737.808032,643.99979 Z" id="Shape-3"></path>
            </g>
        </g>
    </g>
</svg>