
<svg width="19px" height="20px" viewBox="0 0 19 20" version="1.1" xmlns="http://www.w3.org/2000/svg" xmlns:xlink="http://www.w3.org/1999/xlink">
    <g stroke="none" stroke-width="1" fill="none" fill-rule="evenodd">
        <g transform="translate(-1061.000000, -291.000000)">
            <g transform="translate(930.000000, 206.000000)">
                <g transform="translate(3.000000, 83.000000)">
                    <g transform="translate(127.000000, 2.000000)">
                        <g fill="#CCCCCC">
                            <path d="M10.5006766,19.2065663 C15.7470083,19.2065663 20,14.9070303 20,9.60328317 C20,4.29953607 15.7470083,0 10.5006766,0 C5.25434488,0 1.00135318,4.29953607 1.00135318,9.60328317 C1.00135318,14.9070303 5.25434488,19.2065663 10.5006766,19.2065663 Z" id="Oval-1"></path>
                            <polygon  transform="translate(2.948265, 16.991749) rotate(-134.000000) translate(-2.948265, -16.991749) " points="2.94826548 15.4231209 5.55886284 18.5603766 0.337668131 18.5603766"></polygon>
                        </g>
                        <path d="M9.38478799,5.17147505 L10.1474657,7.03129603 C10.1474657,7.03129603 10.2259346,7.5596962 9.46226637,8.05661814 C8.69859813,8.55354008 12.1247051,11.3232991 12.8234411,11.093508 C13.5221772,10.8637169 13.8250472,9.8138635 13.8250472,9.8138635 L15.9978534,10.8853175 C15.9978534,10.8853175 16.1510492,13.1461061 13.869069,12.992514 C11.5870889,12.8389219 9.66718786,11.3988469 9.66718786,11.3988469 C9.66718786,11.3988469 6.35674814,8.66371387 7.11205231,6.48238074 C7.86735641,4.30104757 9.38478799,5.17147505 9.38478799,5.17147505 Z" fill="#FFFFFF"></path>
                    </g>
                </g>
            </g>
        </g>
    </g>
</svg>
