<?xml version="1.0" encoding="UTF-8"?>
<svg width="24px" height="18px" viewBox="0 0 24 18" version="1.1" xmlns="http://www.w3.org/2000/svg" xmlns:xlink="http://www.w3.org/1999/xlink">
    <g id="Desktop" stroke="none" stroke-width="1" fill="none" fill-rule="evenodd">
        <g id="Community-Final-1.1" transform="translate(-831.000000, -3294.000000)" fill="#008DE4">
            <g id="How-it-works" transform="translate(0.000000, 2923.000000)">
                <g id="Off-site-icon-Copy" transform="translate(831.000000, 371.000000)">
                    <path d="M11.325,12.525 C11.215616,12.624111 11.1697047,12.7754075 11.2055634,12.9185927 C11.2414221,13.0617779 11.3532221,13.1735779 11.4964073,13.2094366 C11.6395925,13.2452953 11.790889,13.199384 11.89,13.09 L15.89,9.09 C15.9621326,9.01241003 16.0030836,8.91092279 16.005,8.805 C16.0026666,8.67731113 15.9395015,8.55841204 15.835,8.485 L11.875,4.525 C11.718869,4.36924668 11.466131,4.36924668 11.31,4.525 C11.2339502,4.59932086 11.1910774,4.70116484 11.1910774,4.8075 C11.1910774,4.91383516 11.2339502,5.01567914 11.31,5.09 L14.615,8.4 L0.4,8.4 C0.1790861,8.4 2.705415e-17,8.5790861 0,8.8 C-2.705415e-17,9.0209139 0.1790861,9.2 0.4,9.2 L14.65,9.2 L11.325,12.525 Z" id="Path"></path>
                    <path d="M6.4,6 C6.4,6.2209139 6.5790861,6.4 6.8,6.4 C7.0209139,6.4 7.2,6.2209139 7.2,6 L7.2,0.8 L22.8,0.8 L22.8,16.8 L7.2,16.8 L7.2,11.6 C7.2,11.3790861 7.0209139,11.2 6.8,11.2 C6.5790861,11.2 6.4,11.3790861 6.4,11.6 L6.4,17.6 L23.6,17.6 L23.6,0 L6.4,0 L6.4,6 Z" id="Path"></path>
                </g>
            </g>
        </g>
    </g>
</svg>
