<?xml version="1.0" encoding="UTF-8"?>
<svg width="23px" height="19px" viewBox="0 0 23 19" version="1.1" xmlns="http://www.w3.org/2000/svg" xmlns:xlink="http://www.w3.org/1999/xlink">
    <!-- Generator: Sketch 51.3 (57544) - http://www.bohemiancoding.com/sketch -->
    <title>Group 11</title>
    <desc>Created with Sketch.</desc>
    <defs></defs>
    <g id="Symbols" stroke="none" stroke-width="1" fill="none" fill-rule="evenodd">
        <g id="Footer_grid" transform="translate(-530.000000, -625.000000)" fill="#FFFFFF">
            <g id="Group-18">
                <g id="Group-11" transform="translate(530.000000, 625.000000)">
                    <path d="M23,2.24911558 C22.1538342,2.63067032 21.2443038,2.88843018 20.2899236,3.0043929 C21.2640837,2.41078537 22.0123849,1.47080936 22.3646282,0.350693697 C21.4527977,0.900464515 20.4429878,1.29955394 19.3680882,1.51464608 C18.5074325,0.582385332 17.2810786,0 15.9238554,0 C13.3179684,0 11.205084,2.1475313 11.205084,4.79643769 C11.205084,5.17238133 11.2468288,5.53850555 11.3272134,5.88954994 C7.40550297,5.68953764 3.92861036,3.77989356 1.60136699,0.877903221 C1.19518902,1.58630449 0.962430188,2.41020088 0.962430188,3.28927308 C0.962430188,4.95343157 1.79548602,6.42155228 3.06162969,7.28168702 C2.28802856,7.25678777 1.5605422,7.04099425 0.924365378,6.681767 C0.92390538,6.70175654 0.92390538,6.72186298 0.92390538,6.74208632 C0.92390538,9.06601655 2.55045725,11.0046513 4.70911145,11.4453564 C4.31316843,11.5550066 3.89629552,11.6135725 3.46585267,11.6135725 C3.16167919,11.6135725 2.86613067,11.5834128 2.57794211,11.5275356 C3.17858411,13.4330883 4.92105539,14.8199649 6.98598507,14.8585412 C5.37104814,16.1451195 3.33647832,16.9118528 1.12561437,16.9118528 C0.744736276,16.9118528 0.369148154,16.8891746 0,16.8447534 C2.08827456,18.2057957 4.56869716,19 7.23334883,19 C15.9127004,19 20.6589567,11.6910758 20.6589567,5.352521 C20.6589567,5.14455963 20.6543567,4.93776725 20.6452718,4.73191005 C21.5674522,4.0557726 22.3673882,3.21095149 23,2.24911558 L23,2.24911558 Z" id="Shape-5"></path>
                </g>
            </g>
        </g>
    </g>
</svg>