<?xml version="1.0" encoding="UTF-8"?>
<svg width="30px" height="29px" viewBox="0 0 30 29" version="1.1" xmlns="http://www.w3.org/2000/svg" xmlns:xlink="http://www.w3.org/1999/xlink">
    <!-- Generator: Sketch 51.3 (57544) - http://www.bohemiancoding.com/sketch -->
    <title>Group 8</title>
    <desc>Created with Sketch.</desc>
    <defs></defs>
    <g id="Symbols" stroke="none" stroke-width="1" fill="none" fill-rule="evenodd">
        <g id="Footer_grid" transform="translate(-596.000000, -618.000000)" fill="#FFFFFF">
            <g id="Group-18">
                <g id="Group-8" transform="translate(596.000000, 618.000000)">
                    <path d="M24.5677988,13.6806911 L5.96300292,13.6806911 C3.00574344,13.6806911 0.608498542,16.0472561 0.608498542,18.9631707 L0.608498542,23.2076626 C0.608498542,26.1235772 3.00574344,28.4895528 5.96300292,28.4895528 L24.5677988,28.4895528 C27.5244606,28.4895528 29.9223032,26.1235772 29.9223032,23.2076626 L29.9223032,18.9631707 C29.9223032,16.0472561 27.5244606,13.6806911 24.5677988,13.6806911 L24.5677988,13.6806911 Z M9.87174927,16.9850407 L8.14209913,16.9850407 L8.14209913,25.4610569 L6.47102041,25.4610569 L6.47102041,16.9850407 L4.7425656,16.9850407 L4.7425656,15.5432927 L9.87174927,15.5432927 L9.87174927,16.9850407 L9.87174927,16.9850407 Z M14.7576822,25.4610569 L13.2754665,25.4610569 L13.2754665,24.6594309 C12.9999417,24.9559146 12.7160496,25.1822561 12.4196064,25.3349187 C12.1231633,25.494065 11.8368805,25.5683333 11.5583673,25.5683333 C11.2141108,25.5683333 10.958309,25.4604675 10.7831924,25.2411992 C10.6110641,25.0225203 10.523207,24.6983333 10.523207,24.2603862 L10.523207,18.1438618 L12.0054227,18.1438618 L12.0054227,23.7570122 C12.0054227,23.9303049 12.0382945,24.0546748 12.0974636,24.1318902 C12.161414,24.2114634 12.2630175,24.2480081 12.4022741,24.2480081 C12.5098542,24.2480081 12.6485131,24.1973171 12.8152624,24.0947561 C12.983207,23.9910163 13.1362099,23.8613415 13.2754665,23.7010163 L13.2754665,18.1432724 L14.7576822,18.1432724 L14.7576822,25.4610569 L14.7576822,25.4610569 Z M20.1390816,23.9503455 C20.1390816,24.4672764 20.0225364,24.8645528 19.7900437,25.1415854 C19.5587464,25.4186179 19.2204665,25.5547764 18.7823761,25.5547764 C18.4907143,25.5547764 18.2313265,25.5029065 18.0060058,25.3956301 C17.7794898,25.2895325 17.5661224,25.1262602 17.3718805,24.8999187 L17.3718805,25.4604675 L15.8717347,25.4604675 L15.8717347,15.5432927 L17.3718805,15.5432927 L17.3718805,18.7374187 C17.5726968,18.5163821 17.7848688,18.3448577 18.0066035,18.2299187 C18.2331195,18.112622 18.4608309,18.0560366 18.6915306,18.0560366 C19.1606997,18.0560366 19.518105,18.2104675 19.7655394,18.5222764 C20.0141691,18.8340854 20.1378863,19.2908943 20.1378863,19.8897561 L20.1378863,23.9503455 L20.1390816,23.9503455 Z M25.2808163,21.9786992 L22.4442857,21.9786992 L22.4442857,23.357378 C22.4442857,23.741687 22.4920991,24.0092886 22.5889213,24.1584146 C22.6881341,24.3081301 22.8548834,24.3812195 23.0921574,24.3812195 C23.3383965,24.3812195 23.5087318,24.3181504 23.6079446,24.1920122 C23.7035714,24.0646951 23.7549708,23.7876626 23.7549708,23.357378 L23.7549708,23.0243496 L25.2808163,23.0243496 L25.2808163,23.3998171 C25.2808163,24.1495732 25.096137,24.7148374 24.7213994,25.0961992 C24.3526385,25.4740244 23.7968076,25.6614634 23.0580904,25.6614634 C22.3928863,25.6614634 21.8687318,25.4616463 21.4880175,25.0596545 C21.1084985,24.6600203 20.9148542,24.1053659 20.9148542,23.4004065 L20.9148542,20.1137398 C20.9148542,19.4812805 21.1264286,18.960813 21.5465889,18.5617683 C21.9655539,18.1627236 22.5052478,17.9634959 23.1692566,17.9634959 C23.8488047,17.9634959 24.3705685,18.1479878 24.7345481,18.5181504 C25.0985277,18.8889024 25.2808163,19.4193902 25.2808163,20.1131504 L25.2808163,21.9786992 L25.2808163,21.9786992 Z" id="Shape"></path>
                    <path d="M23.1065015,19.242561 C22.8698251,19.242561 22.7012828,19.3079878 22.598484,19.4447358 C22.4932945,19.5732317 22.4442857,19.7930894 22.4442857,20.1001829 L22.4442857,20.8399187 L23.7549708,20.8399187 L23.7549708,20.1001829 C23.7549708,19.7930894 23.7023761,19.5726423 23.5983819,19.4447358 C23.4985714,19.3085772 23.3318222,19.242561 23.1065015,19.242561 L23.1065015,19.242561 Z" id="Shape"></path>
                    <path d="M17.9922595,19.2178049 C17.88707,19.2178049 17.7806851,19.2407927 17.678484,19.2885366 C17.5744898,19.3351016 17.4728863,19.4123171 17.3724781,19.5125203 L17.3724781,24.0705894 C17.491414,24.1884756 17.6091545,24.279248 17.7239067,24.3311179 C17.8380612,24.3812195 17.9563994,24.4095122 18.0825073,24.4095122 C18.2647959,24.4095122 18.3974781,24.3576423 18.4829446,24.2527236 C18.5672157,24.1489837 18.6102478,23.9833537 18.6102478,23.7493496 L18.6102478,19.9705081 C18.6102478,19.7217683 18.5600437,19.5355081 18.4548542,19.4076016 C18.3460787,19.2814634 18.1918805,19.2178049 17.9922595,19.2178049 L17.9922595,19.2178049 Z" id="Shape"></path>
                    <polygon id="Shape" points="8.39909621 11.139065 10.2781633 11.139065 10.2781633 6.60634146 12.4662245 0.212195122 10.5560787 0.212195122 9.39301749 4.57987805 9.2746793 4.57987805 8.05364431 0.212195122 6.1608309 0.212195122 8.39909621 6.81028455"></polygon>
                    <path d="M15.0122886,11.3424187 C15.7713265,11.3424187 16.3666035,11.1461382 16.8005102,10.7535772 C17.2314286,10.359248 17.4471866,9.82109756 17.4471866,9.13146341 L17.4471866,4.96772358 C17.4471866,4.35412602 17.2266472,3.84898374 16.7873615,3.45936992 C16.3450875,3.07093496 15.7784985,2.8752439 15.0875948,2.8752439 C14.3285569,2.8752439 13.7243149,3.0603252 13.2748688,3.42989837 C12.8266181,3.79947154 12.6012974,4.29518293 12.6012974,4.92174797 L12.6012974,9.09963415 C12.6012974,9.78514228 12.8206414,10.3274187 13.2587318,10.734126 C13.6968222,11.139065 14.2825364,11.3424187 15.0122886,11.3424187 L15.0122886,11.3424187 Z M14.3201895,4.86044715 C14.3201895,4.68538618 14.3841399,4.54392276 14.5090525,4.43310976 C14.6387464,4.32465447 14.803105,4.27219512 15.0075073,4.27219512 C15.2280466,4.27219512 15.4067493,4.32465447 15.5430175,4.43310976 C15.678688,4.54392276 15.7462245,4.68538618 15.7462245,4.86044715 L15.7462245,9.25229675 C15.7462245,9.46743902 15.6798834,9.63837398 15.5454082,9.76156504 C15.4121283,9.88534553 15.232828,9.94605691 15.0075073,9.94605691 C14.7869679,9.94605691 14.6166327,9.88711382 14.4970991,9.76333333 C14.3793586,9.6425 14.3195918,9.4727439 14.3195918,9.25170732 L14.3195918,4.86044715 L14.3201895,4.86044715 Z" id="Shape"></path>
                    <path d="M19.967551,11.2569512 C20.2813265,11.2569512 20.6034694,11.1685366 20.9351749,10.9987805 C21.2704665,10.8266667 21.591414,10.5749797 21.8968222,10.2466667 L21.8968222,11.1396545 L23.5661079,11.1396545 L23.5661079,3.07918699 L21.8968222,3.07918699 L21.8968222,9.19747967 C21.7414286,9.37254065 21.5687026,9.51636179 21.3834257,9.63071138 C21.1945627,9.74388211 21.0391691,9.80046748 20.9166472,9.80046748 C20.7600583,9.80046748 20.6447085,9.75802846 20.577172,9.67020325 C20.5084402,9.58591463 20.4695918,9.4479878 20.4695918,9.25878049 L20.4695918,3.07918699 L18.8026968,3.07918699 L18.8026968,9.81579268 C18.8026968,10.2961789 18.9007143,10.6551423 19.0943586,10.8932724 C19.2915889,11.134939 19.5796647,11.2569512 19.967551,11.2569512 L19.967551,11.2569512 Z" id="Shape"></path>
                </g>
            </g>
        </g>
    </g>
</svg>