<?xml version="1.0" encoding="UTF-8"?>
<svg width="14px" height="19px" viewBox="0 0 14 19" version="1.1" xmlns="http://www.w3.org/2000/svg" xmlns:xlink="http://www.w3.org/1999/xlink">
    <!-- Generator: Sketch 51.3 (57544) - http://www.bohemiancoding.com/sketch -->
    <title>Clipboard</title>
    <desc>Created with Sketch.</desc>
    <defs></defs>
    <g id="Desktop" stroke="none" stroke-width="1" fill="none" fill-rule="evenodd">
        <g id="Developers-2.5" transform="translate(-687.000000, -787.000000)" fill-rule="nonzero">
            <g id="terminal-two" transform="translate(130.000000, 782.000000)">
                <g id="Group" transform="translate(557.000000, 5.000000)">
                    <g id="Clipboard">
                        <path d="M11.9477675,2.196875 L10.4970514,2.196875 L10.4970514,2.01875 C10.4970514,1.46128758 10.0482046,1.009375 9.49452401,1.009375 L8.84582982,1.009375 C8.52310662,0.391422931 7.88803545,0.00321036682 7.19460826,0 L6.77000842,0 C6.07731643,0.00582325032 5.4434734,0.393285066 5.11878686,1.009375 L4.48188711,1.009375 C4.21396267,1.0062012 3.95592541,1.111143 3.76535639,1.30078262 C3.57478737,1.49042224 3.46754675,1.74897687 3.46756529,2.01875 L3.46756529,2.196875 L2.04043808,2.196875 C0.916214713,2.20336171 0.00644269917,3.11934779 0,4.25125 L0,16.945625 C0.00644269917,18.0775272 0.916214713,18.9935133 2.04043808,19 L11.9477675,19 C13.0765941,19.0000188 13.9935125,18.0821432 14,16.945625 L14,4.25125 C13.9935125,3.11473184 13.0765941,2.19685623 11.9477675,2.196875 Z M4.64700927,2.196875 L6.00336984,2.196875 L6.09772536,1.73375 C6.16884273,1.41670275 6.44719525,1.19053304 6.77000842,1.1875 L7.19460826,1.1875 C7.51742143,1.19053304 7.79577395,1.41670275 7.86689132,1.73375 L7.97304128,2.196875 L9.31760741,2.196875 L9.31760741,3.5625 L4.59983151,3.5625 L4.64700927,2.196875 Z M12.820556,16.945625 C12.8141039,17.4263014 12.4252266,17.8125439 11.9477675,17.8125 L2.04043808,17.8125 C1.56492417,17.8125 1.17944398,17.4243868 1.17944398,16.945625 L1.17944398,4.25125 C1.17944398,3.77248816 1.56492417,3.384375 2.04043808,3.384375 L3.46756529,3.384375 L3.46756529,3.72875 C3.46756529,4.2927708 3.92169264,4.75 4.48188711,4.75 L9.49452401,4.75 C10.050107,4.74349517 10.497089,4.28816568 10.4970514,3.72875 L10.4970514,3.384375 L11.9477675,3.384375 C12.4252266,3.3843311 12.8141039,3.77057358 12.820556,4.25125 L12.820556,16.945625 Z" id="Shape" fill="#454545"></path>
                        <path d="M10.2672428,7.16904323 L6.68823112,12.0917388 L4.52869187,10.2369791 C4.29281467,10.0146746 3.91531205,10.0146746 3.67943486,10.2369791 C3.5645955,10.3464954 3.5,10.4955737 3.5,10.6510921 C3.5,10.8066105 3.5645955,10.9556888 3.67943486,11.0652051 L6.89447925,13.8181818 L11.2620867,7.82229194 C11.3561059,7.69567128 11.3936154,7.53818194 11.3662756,7.38483974 C11.3389358,7.23149754 11.2490128,7.09501273 11.1164998,7.00573106 C10.8343685,6.82885044 10.4569167,6.90143444 10.2672428,7.16904323 Z" id="Shape" fill="#008DE4"></path>
                    </g>
                </g>
            </g>
        </g>
    </g>
</svg>