<?xml version="1.0" encoding="utf-8"?>
<!-- Generator: Adobe Illustrator 23.0.0, SVG Export Plug-In . SVG Version: 6.00 Build 0)  -->
<svg version="1.1"
	 id="svg2" xmlns:cc="http://creativecommons.org/ns#" xmlns:dc="http://purl.org/dc/elements/1.1/" xmlns:inkscape="http://www.inkscape.org/namespaces/inkscape" xmlns:rdf="http://www.w3.org/1999/02/22-rdf-syntax-ns#" xmlns:sodipodi="http://sodipodi.sourceforge.net/DTD/sodipodi-0.dtd" xmlns:svg="http://www.w3.org/2000/svg"
	 xmlns="http://www.w3.org/2000/svg" xmlns:xlink="http://www.w3.org/1999/xlink" x="0px" y="0px" viewBox="0 0 200 200"
	 style="enable-background:new 0 0 200 200;" xml:space="preserve">
<style type="text/css">
	.st0{fill:#FFFFFF;}
</style>
<path id="path8" inkscape:connector-curvature="0" class="st0" d="M72.4,28.6c-2.7,0-24.6,0.6-47.7,17.8c0,0-24.7,44.4-24.7,99.1
	c0,0,14.4,24.7,52.3,25.9c0,0,6.3-7.5,11.5-14.1c-21.8-6.5-30-20.1-30-20.1s1.7,1.2,4.8,2.9c0.2,0,0.3,0.2,0.7,0.3
	c0.5,0.3,1,0.5,1.5,0.9c4.3,2.4,8.6,4.3,12.5,5.8c7,2.9,15.4,5.5,25.2,7.4c12.9,2.4,27.9,3.3,44.4,0.2c8.1-1.5,16.3-3.8,24.9-7.4
	c6-2.2,12.7-5.5,19.7-10.1c0,0-8.6,13.9-31,20.2c5.1,6.3,11.3,13.7,11.3,13.7c37.9-1.2,52.3-25.9,52.3-25.7
	c0-54.7-24.7-99.1-24.7-99.1c-24.5-18.3-48-17.8-48-17.8l-2.4,2.7c29.1,8.7,42.7,21.6,42.7,21.6c-17.8-9.6-35.3-14.4-51.6-16.3
	c-12.3-1.4-24.2-1-34.6,0.3c-1,0-1.9,0.2-2.9,0.3c-6,0.7-20.6,2.7-38.9,10.8c-6.5,3-10.2,5.1-10.2,5.1s14.1-13.5,44.9-22.3l-1.7-2.1
	C72.7,28.6,72.6,28.6,72.4,28.6L72.4,28.6z M68,91.9c9.8,0,17.7,8.4,17.5,18.9c0,10.5-7.7,18.9-17.5,18.9c-9.6,0-17.5-8.4-17.5-18.9
	C50.6,100.3,58.3,91.9,68,91.9L68,91.9z M130.6,91.9c9.6,0,17.5,8.4,17.5,18.9s-7.7,18.9-17.5,18.9c-9.6,0-17.5-8.4-17.5-18.9
	C113.1,100.3,120.8,91.9,130.6,91.9L130.6,91.9z"/>
</svg>
