<?xml version="1.0" encoding="utf-8"?>
<!-- Generator: Adobe Illustrator 23.0.0, SVG Export Plug-In . SVG Version: 6.00 Build 0)  -->
<svg version="1.1" id="Layer_1" xmlns="http://www.w3.org/2000/svg" xmlns:xlink="http://www.w3.org/1999/xlink" x="0px" y="0px"
	 viewBox="0 0 240 240" style="enable-background:new 0 0 240 240;" xml:space="preserve">
<style type="text/css">
	.st0{fill:#FFFFFF;}
</style>
<path class="st0" d="M224.9,120.5c-0.5-12.7-11.2-22.7-23.8-22.2c-5.7,0.2-11,2.5-15.1,6.5c-17.9-12.1-38.9-18.9-60.6-19.4
	l10.2-49.1l33.7,7.1c0.9,8.7,8.7,14.9,17.3,14c8.7-0.9,14.9-8.7,14-17.3c-0.9-8.7-8.7-14.9-17.3-14c-5,0.5-9.4,3.5-12,7.7l-38.6-7.7
	c-2.7-0.6-5.2,1.1-5.8,3.8l0,0l-11.6,54.6c-21.9,0.3-43.3,7.1-61.4,19.4c-9.3-8.7-23.8-8.2-32.4,0.9c-8.7,9.3-8.2,23.8,0.9,32.4
	c1.9,1.7,3.9,3.1,6.1,4.1c-0.2,2.4-0.2,4.6,0,6.9c0,35.2,41.1,63.9,91.7,63.9s91.7-28.6,91.7-63.9c0.2-2.4,0.2-4.6,0-6.9
	C220,137.5,225,129.4,224.9,120.5z M67.5,136.3c0-8.7,7.1-15.7,15.7-15.7S99,127.6,99,136.3c0,8.7-7.1,15.7-15.7,15.7
	S67.5,144.9,67.5,136.3z M158.9,179.5c-11.2,8.3-24.9,12.7-38.9,12.1c-14,0.6-27.7-3.8-38.9-12.1c-1.4-1.9-1.3-4.6,0.6-6
	c1.6-1.3,3.8-1.3,5.3,0c9.4,6.9,21.1,10.4,32.7,9.9c11.8,0.6,23.3-2.7,32.9-9.6c1.7-1.7,4.6-1.7,6.1,0.2c1.7,1.7,1.7,4.6-0.2,6.1
	l0,0L158.9,179.5L158.9,179.5z M156.1,152.6c-8.7,0-15.7-7.1-15.7-15.7c0-8.7,7.1-15.7,15.7-15.7c8.7,0,15.7,7.1,15.7,15.7
	c0.3,8.7-6.5,16-15.1,16.4c-0.3,0-0.5,0-0.8,0L156.1,152.6z"/>
</svg>
