<?xml version="1.0" encoding="utf-8"?>
<!-- Generator: Adobe Illustrator 23.0.0, SVG Export Plug-In . SVG Version: 6.00 Build 0)  -->
<svg version="1.1" id="Layer_1" xmlns="http://www.w3.org/2000/svg" xmlns:xlink="http://www.w3.org/1999/xlink" x="0px" y="0px"
	 viewBox="0 0 1398 615.9" style="enable-background:new 0 0 1398 615.9;" xml:space="preserve">
<style type="text/css">
	.st0{fill:#FFFFFF;}
</style>
<g>
	<path class="st0" d="M297.6,0H132.1l-13.7,76.6l149.3,0.2c73.5,0,95.3,26.7,94.6,71c-0.3,22.7-10.2,61.1-14.4,73.5
		c-11.3,33.2-34.6,71-121.9,70.9L81,292.1l-13.7,76.7h165.1c58.2,0,83-6.8,109.2-18.9c58.1-26.8,92.7-84.2,106.6-159.1
		C468.7,79.3,443,0,297.6,0z"/>
	<path class="st0" d="M809.2,369l11.7-66.6h141.3c11.1,0,18.9-6.7,20.5-17.8c2.2-11.1-3.3-17.8-14.4-17.8h-67.6
		c-53.3,0-78.8-31.1-69.4-84.4S877.4,98,930.7,98h153.5l-12.2,66.6H936.7c-11.1,0-18.9,6.7-20.5,17.8c-2.2,11.1,3.3,17.8,14.4,17.8
		h67.6c53.3,0,78.8,31.1,69.4,84.4S1022,369,968.7,369H809.2z"/>
	<path class="st0" d="M594,368.9c-87.7,0-127.2-47.8-111.6-135.5c15-87.7,71.6-135.5,159.4-135.5h155.5l-47.8,271L594,368.9z
		 M695,164.6h-40c-47.8,0-76,21.1-84.3,68.8c-8.9,47.8,8.9,68.9,56.6,68.9h43.8L695,164.6z"/>
	<path class="st0" d="M1276.9,368.9l27.8-157.7c5-31.1-7.6-44.4-38.7-44.4h-44.2l-35.5,202.1h-90L1161.3,0h90L1234,98h67.4
		c78.8,0,107.2,34.4,93.3,113.3L1366.9,369L1276.9,368.9z"/>
	<path class="st0" d="M60.8,145.9c-43.3,0-49.5,28.2-53.6,45.3C1.8,213.5,0,222.6,0,222.6h169.4c43.3,0,49.5-28.2,53.6-45.3
		c5.4-22.4,7.1-31.4,7.1-31.4H60.8z"/>
	<g>
		<path class="st0" d="M485.8,442.5v61.8h98v31.9h-98v77.7h-37.7v-203h148.2v31.6H485.8z"/>
		<path class="st0" d="M652.2,605.7c-12.6-6.8-22.4-16.2-29.4-28.3c-7.1-12.1-10.6-25.8-10.6-41c0-15.3,3.5-28.9,10.6-40.9
			c7.1-12,16.9-21.4,29.4-28.1c12.6-6.8,26.7-10.1,42.3-10.1c15.9,0,30.1,3.4,42.6,10.1c12.6,6.8,22.4,16.1,29.4,28.1
			c7.1,12,10.6,25.6,10.6,40.9c0,15.3-3.5,29-10.6,41c-7.1,12.1-16.9,21.5-29.4,28.3c-12.6,6.8-26.8,10.2-42.6,10.2
			C678.9,615.9,664.8,612.5,652.2,605.7z M727.6,571.5c8.7-8.9,13.1-20.6,13.1-35.1s-4.4-26.2-13.1-35.1
			c-8.7-8.9-19.7-13.3-33.1-13.3c-13.3,0-24.3,4.5-32.9,13.3c-8.6,8.9-12.9,20.6-12.9,35.1s4.3,26.2,12.9,35.1
			c8.6,8.9,19.6,13.3,32.9,13.3C707.9,584.8,718.9,580.4,727.6,571.5z"/>
		<path class="st0" d="M901.6,457.2v34.5c-3.1-0.6-5.9-0.9-8.4-0.9c-14.1,0-25.1,4.1-33.1,12.3c-7.9,8.2-11.9,20.1-11.9,35.5v75.1
			H812V459h34.5v22.6C857,465.4,875.3,457.2,901.6,457.2z"/>
		<path class="st0" d="M1083.8,459v154.9h-34.5v-19.7c-5.8,7-13,12.3-21.8,16.1c-8.7,3.8-18.1,5.7-28.1,5.7
			c-20.7,0-37-5.8-48.9-17.3c-11.9-11.5-17.8-28.6-17.8-51.2V459h36.3v83.5c0,13.9,3.1,24.3,9.4,31.2c6.3,6.9,15.2,10.3,26.8,10.3
			c13,0,23.2-4,30.9-12c7.6-8,11.5-19.6,11.5-34.7V459H1083.8z"/>
		<path class="st0" d="M1373.2,474.2c11.4,11.3,17.1,28.3,17.1,50.9v88.7H1354v-84.1c0-13.5-3-23.7-9-30.6
			c-6-6.9-14.6-10.3-25.8-10.3c-12.2,0-21.9,4-29.3,12c-7.3,8-11,19.5-11,34.4v78.6h-36.3v-84.1c0-13.5-3-23.7-9-30.6
			c-6-6.9-14.6-10.3-25.8-10.3c-12.4,0-22.2,4-29.4,11.9c-7.3,7.9-10.9,19.4-10.9,34.5v78.6h-36.3V459h34.5v19.7
			c5.8-7,13-12.3,21.8-16c8.7-3.7,18.4-5.5,29-5.5c11.6,0,21.9,2.2,30.9,6.5c9,4.4,16.1,10.8,21.3,19.3c6.4-8.1,14.6-14.5,24.6-19
			c10.1-4.5,21.2-6.8,33.4-6.8C1346.3,457.2,1361.8,462.9,1373.2,474.2z"/>
	</g>
</g>
</svg>
