<?xml version="1.0" encoding="utf-8"?>
<!-- Generator: Adobe Illustrator 23.0.0, SVG Export Plug-In . SVG Version: 6.00 Build 0)  -->
<svg version="1.1" id="Layer_1" xmlns="http://www.w3.org/2000/svg" xmlns:xlink="http://www.w3.org/1999/xlink" x="0px" y="0px"
	 viewBox="0 0 1398 672.1" style="enable-background:new 0 0 1398 672.1;" xml:space="preserve">
<style type="text/css">
	.st0{fill:#FFFFFF;}
</style>
<g>
	<path class="st0" d="M297.6,0H132.1l-13.7,76.6l149.3,0.2c73.5,0,95.3,26.7,94.6,71c-0.3,22.7-10.2,61.1-14.4,73.5
		c-11.3,33.2-34.6,71-121.9,70.9L81,292.1l-13.7,76.7h165.1c58.2,0,83-6.8,109.2-18.9c58.1-26.8,92.7-84.2,106.6-159.1
		C468.7,79.3,443,0,297.6,0z"/>
	<path class="st0" d="M809.2,369l11.7-66.6h141.3c11.1,0,18.9-6.7,20.5-17.8c2.2-11.1-3.3-17.8-14.4-17.8h-67.6
		c-53.3,0-78.8-31.1-69.4-84.4S877.4,98,930.7,98h153.5l-12.2,66.6H936.7c-11.1,0-18.9,6.7-20.5,17.8c-2.2,11.1,3.3,17.8,14.4,17.8
		h67.6c53.3,0,78.8,31.1,69.4,84.4S1022,369,968.7,369H809.2z"/>
	<path class="st0" d="M594,368.9c-87.7,0-127.2-47.8-111.6-135.5c15-87.7,71.6-135.5,159.4-135.5h155.5l-47.8,271L594,368.9z
		 M695,164.6h-40c-47.8,0-76,21.1-84.3,68.8c-8.9,47.8,8.9,68.9,56.6,68.9h43.8L695,164.6z"/>
	<path class="st0" d="M1276.9,368.9l27.8-157.7c5-31.1-7.6-44.4-38.7-44.4h-44.2l-35.5,202.1h-90L1161.3,0h90L1234,98h67.4
		c78.8,0,107.2,34.4,93.3,113.3L1366.9,369L1276.9,368.9z"/>
	<path class="st0" d="M60.8,145.9c-43.3,0-49.5,28.2-53.6,45.3C1.8,213.5,0,222.6,0,222.6h169.4c43.3,0,49.5-28.2,53.6-45.3
		c5.4-22.4,7.1-31.4,7.1-31.4H60.8z"/>
	<g>
		<path class="st0" d="M918.6,526.7c6.6,8.6,9.9,19.3,9.9,32c0,17.6-6.8,31.2-20.3,40.7c-13.5,9.6-33.3,14.4-59.2,14.4H748.1v-203
			h95.1c24,0,42.4,4.7,55.4,14.1c13,9.4,19.4,22.3,19.4,38.7c0,10.1-2.3,18.9-7,26.7c-4.6,7.7-11,13.7-19.1,18
			C903.1,512,912,518.1,918.6,526.7z M785.8,440.4v56h53.4c13.1,0,23.2-2.4,30.3-7.1c7.1-4.7,10.6-11.6,10.6-20.7
			c0-9.3-3.5-16.3-10.6-21c-7.1-4.7-17.2-7.1-30.3-7.1H785.8z M890.5,555c0-19.5-14.6-29.3-43.8-29.3h-60.9v58.6h60.9
			C875.9,584.3,890.5,574.5,890.5,555z"/>
		<path class="st0" d="M965.3,398.7h36.3v215.2h-36.3V398.7z"/>
		<path class="st0" d="M1076.4,605.7c-12.6-6.8-22.4-16.2-29.4-28.3c-7.1-12.1-10.6-25.8-10.6-41c0-15.3,3.5-28.9,10.6-40.9
			c7.1-12,16.9-21.4,29.4-28.1c12.6-6.8,26.7-10.1,42.3-10.1c15.9,0,30.1,3.4,42.6,10.1c12.6,6.8,22.4,16.1,29.4,28.1
			c7.1,12,10.6,25.6,10.6,40.9c0,15.3-3.5,29-10.6,41c-7.1,12.1-16.9,21.5-29.4,28.3c-12.6,6.8-26.8,10.2-42.6,10.2
			C1103,615.9,1088.9,612.5,1076.4,605.7z M1151.8,571.5c8.7-8.9,13-20.6,13-35.1s-4.3-26.2-13-35.1c-8.7-8.9-19.7-13.3-33.1-13.3
			c-13.3,0-24.3,4.5-32.9,13.3c-8.6,8.9-12.9,20.6-12.9,35.1s4.3,26.2,12.9,35.1c8.6,8.9,19.6,13.3,32.9,13.3
			C1132,584.8,1143.1,580.4,1151.8,571.5z"/>
		<path class="st0" d="M1389.8,459v131.4c0,54.5-27.8,81.8-83.5,81.8c-14.9,0-29-1.9-42.3-5.7c-13.3-3.8-24.4-9.2-33.1-16.4
			l16.2-27.3c6.8,5.6,15.3,10.1,25.7,13.5c10.3,3.4,20.8,5.1,31.5,5.1c17,0,29.5-3.9,37.4-11.6c7.9-7.7,11.9-19.5,11.9-35.4v-8.1
			c-6.2,6.8-13.7,11.9-22.6,15.4c-8.9,3.5-18.7,5.2-29.3,5.2c-14.7,0-28-3.1-39.9-9.4c-11.9-6.3-21.3-15.1-28.1-26.5
			c-6.9-11.4-10.3-24.5-10.3-39.2c0-14.7,3.4-27.7,10.3-39c6.9-11.3,16.2-20.1,28.1-26.2c11.9-6.2,25.2-9.3,39.9-9.3
			c11.2,0,21.4,1.8,30.6,5.5c9.2,3.7,16.9,9.3,23.1,16.8V459H1389.8z M1341,563.8c8.8-8.2,13.2-18.9,13.2-32
			c0-13-4.4-23.5-13.2-31.6c-8.8-8.1-20.1-12.2-33.8-12.2c-13.9,0-25.3,4.1-34.1,12.2c-8.8,8.1-13.2,18.7-13.2,31.6
			c0,13.2,4.4,23.8,13.2,32c8.8,8.2,20.2,12.3,34.1,12.3C1320.9,576.1,1332.2,572,1341,563.8z"/>
	</g>
</g>
</svg>
