<?xml version="1.0" encoding="utf-8"?>
<!-- Generator: Adobe Illustrator 23.0.0, SVG Export Plug-In . SVG Version: 6.00 Build 0)  -->
<svg version="1.1" id="Layer_1" xmlns="http://www.w3.org/2000/svg" xmlns:xlink="http://www.w3.org/1999/xlink" x="0px" y="0px"
	 viewBox="0 0 1398.1 651.3" style="enable-background:new 0 0 1398.1 651.3;" xml:space="preserve">
<style type="text/css">
	.st0{fill:#FFFFFF;}
</style>
<path class="st0" d="M297.6,0H132.1l-13.7,76.6l149.3,0.2c73.5,0,95.3,26.7,94.6,71c-0.3,22.7-10.2,61.1-14.4,73.5
	c-11.3,33.2-34.6,71-121.9,70.9l-145-0.1l-13.7,76.7h165.1c58.2,0,83-6.8,109.2-18.9c58.1-26.8,92.7-84.2,106.6-159.1
	C468.7,79.3,443,0,297.6,0z"/>
<path class="st0" d="M809.2,369l11.7-66.6h141.3c11.1,0,18.9-6.7,20.5-17.8c2.2-11.1-3.3-17.8-14.4-17.8h-67.6
	c-53.3,0-78.8-31.1-69.4-84.4S877.4,98,930.7,98h153.5l-12.2,66.6H936.7c-11.1,0-18.9,6.7-20.5,17.8c-2.2,11.1,3.3,17.8,14.4,17.8
	h67.6c53.3,0,78.8,31.1,69.4,84.4S1022,369,968.7,369H809.2z"/>
<path class="st0" d="M594,368.9c-87.7,0-127.2-47.8-111.6-135.5c15-87.7,71.6-135.5,159.4-135.5h155.5l-47.8,271H594z M695,164.6
	h-40c-47.8,0-76,21.1-84.3,68.8c-8.9,47.8,8.9,68.9,56.6,68.9h43.8L695,164.6z"/>
<path class="st0" d="M1276.9,368.9l27.8-157.7c5-31.1-7.6-44.4-38.7-44.4h-44.2l-35.5,202.1h-90l65-368.9h90L1234,98h67.4
	c78.8,0,107.2,34.4,93.3,113.3L1366.9,369L1276.9,368.9z"/>
<path class="st0" d="M60.8,145.9c-43.3,0-49.5,28.2-53.6,45.3C1.8,213.5,0,222.6,0,222.6h169.4c43.3,0,49.5-28.2,53.6-45.3
	c5.4-22.4,7.1-31.4,7.1-31.4L60.8,145.9L60.8,145.9z"/>
<g>
	<path class="st0" d="M978.8,540.1c3.6,5.2,5.5,11.7,5.5,19.4c0,15.7-6.1,27.6-18.3,35.8c-12.2,8.1-28.6,12.2-49.3,12.2h-76.5
		l30.5-152.6h70.4c15.8,0,28.1,2.9,36.7,8.8c8.6,5.9,13,14.4,13,25.4c0,9.4-2.5,17.5-7.4,24.3c-4.9,6.8-11.6,11.8-19.8,15.2
		C970.1,531,975.2,534.9,978.8,540.1z M946.2,578.7c6.5-4.4,9.7-10.8,9.7-19.2c0-6.5-2.3-11.2-6.9-14.1c-4.6-2.8-11.4-4.3-20.6-4.3
		h-46.9l-8.7,44h45.8C930.5,585.2,939.7,583,946.2,578.7z M894.4,477.1l-8.5,42.1h40.3c10.8,0,19.3-2.1,25.5-6.4
		c6.2-4.3,9.4-10.6,9.4-18.9c0-11.2-8.8-16.8-26.4-16.8H894.4z"/>
	<path class="st0" d="M1035.7,445.7h27.3l-32.3,161.8h-27.3L1035.7,445.7z"/>
	<path class="st0" d="M1094.2,602.6c-8.5-4.3-15.1-10.3-19.7-18c-4.7-7.7-7-16.6-7-26.8c0-12.9,2.9-24.6,8.8-34.9
		c5.9-10.3,14.1-18.4,24.6-24.3c10.5-5.9,22.4-8.8,35.6-8.8c11.3,0,21.3,2.1,29.9,6.3c8.6,4.2,15.2,10.2,19.8,17.9
		c4.6,7.7,7,16.6,7,26.8c0,12.9-3,24.6-8.9,34.9c-6,10.3-14.2,18.5-24.7,24.4c-10.5,6-22.4,8.9-35.6,8.9
		C1112.6,609,1102.7,606.8,1094.2,602.6z M1146.3,580.1c6-3.7,10.8-8.9,14.3-15.5c3.5-6.6,5.2-14.1,5.2-22.6
		c0-9.2-2.7-16.3-8.1-21.5c-5.4-5.2-12.9-7.7-22.7-7.7c-7.7,0-14.6,1.9-20.6,5.6c-6,3.7-10.8,8.9-14.3,15.5
		c-3.5,6.6-5.2,14.1-5.2,22.6c0,9.2,2.7,16.3,8.1,21.5c5.4,5.2,12.9,7.7,22.7,7.7C1133.4,585.7,1140.3,583.8,1146.3,580.1z"/>
	<path class="st0" d="M1345.9,491l-19.8,98.8c-4.4,21.4-12.4,37-24.2,46.8c-11.8,9.8-27.7,14.7-47.7,14.7c-22.8,0-41-5.3-54.5-15.9
		l14.2-20.5c4.5,3.9,10.5,7.1,18,9.5c7.5,2.4,15.5,3.6,24.1,3.6c12.5,0,22.1-2.8,28.8-8.3c6.7-5.5,11.1-14,13.3-25.3l1.1-5.7
		c-10.5,9-23.2,13.5-38.2,13.5c-10,0-19-2-26.9-5.9c-7.9-3.9-14.1-9.5-18.5-16.8c-4.4-7.3-6.6-15.8-6.6-25.5
		c0-11.9,2.8-22.8,8.5-32.6s13.5-17.5,23.7-23.2c10.1-5.7,21.4-8.5,33.9-8.5c9.2,0,17.4,1.7,24.6,5.1c7.3,3.4,12.8,8.5,16.6,15.4
		l3.7-19.2H1345.9z M1287.6,574c6-3.4,10.8-8.1,14.2-14.2c3.4-6,5.1-12.8,5.1-20.4c0-8.3-2.7-14.8-8.1-19.5
		c-5.4-4.7-12.9-7.1-22.5-7.1c-7.7,0-14.6,1.7-20.7,5.1c-6.1,3.4-10.9,8.1-14.3,14.2c-3.4,6-5.1,12.8-5.1,20.4
		c0,8.1,2.7,14.6,8.2,19.4s13,7.2,22.6,7.2C1274.7,579.1,1281.6,577.4,1287.6,574z"/>
</g>
</svg>
