<?xml version="1.0" encoding="UTF-8"?>
<svg width="22px" height="22px" viewBox="0 0 22 22" version="1.1" xmlns="http://www.w3.org/2000/svg" xmlns:xlink="http://www.w3.org/1999/xlink">
    <!-- Generator: Sketch 51.3 (57544) - http://www.bohemiancoding.com/sketch -->
    <title>Group 13</title>
    <desc>Created with Sketch.</desc>
    <defs></defs>
    <g id="Symbols" stroke="none" stroke-width="1" fill="none" fill-rule="evenodd">
        <g id="Footer_grid" transform="translate(-669.000000, -622.000000)">
            <g id="Group-18">
                <g id="Group-13" transform="translate(669.000000, 622.000000)">
                    <path d="M12.1606897,10.6561961 L12.1606897,10.6206897 C12.1534069,10.6326788 12.145669,10.644668 12.137931,10.6561961 L12.1606897,10.6561961 L12.1606897,10.6561961 Z" id="Shape" fill="#000000"></path>
                    <path d="M20.3735357,0 L1.62512898,0 C0.727769347,0 0,0.705939121 0,1.57597813 L0,20.4244642 C0,21.2940609 0.727769347,22 1.62512898,22 L20.3735357,22 C21.2722307,22 22,21.2936186 22,20.4244642 L22,1.57597813 C22,0.705496803 21.2717855,0 20.3735357,0 L20.3735357,0 Z M6.66832575,18.4167839 L3.3455134,18.4167839 L3.3455134,8.48276971 L6.66832575,8.48276971 L6.66832575,18.4167839 L6.66832575,18.4167839 Z M5.00714213,7.12573887 L4.98488619,7.12573887 C3.87030855,7.12573887 3.14921598,6.36274076 3.14921598,5.40954602 C3.14921598,4.43512003 3.89256449,3.69335317 5.02895296,3.69335317 C6.16578655,3.69335317 6.86506829,4.43512003 6.88732423,5.40954602 C6.88732423,6.36274076 6.16534143,7.12573887 5.00714213,7.12573887 L5.00714213,7.12573887 Z M18.6504805,18.4167839 L15.3276682,18.4167839 L15.3276682,13.1010093 C15.3276682,11.7660943 14.8469398,10.8549198 13.6446737,10.8549198 C12.7268386,10.8549198 12.1802327,11.4692991 11.9394234,12.0628895 C11.851735,12.2747597 11.8303692,12.5711126 11.8303692,12.8683502 L11.8303692,18.4163416 L8.5075569,18.4163416 C8.5075569,18.4163416 8.55117855,9.41340625 8.5075569,8.4823274 L11.8303692,8.4823274 L11.8303692,9.88845551 C12.2719272,9.21170936 13.061568,8.24789899 14.8255741,8.24789899 C17.0115529,8.24789899 18.6509256,9.66818127 18.6509256,12.7197314 L18.6509256,18.4167839 L18.6504805,18.4167839 Z" id="Shape" fill="#FFFFFF"></path>
                </g>
            </g>
        </g>
    </g>
</svg>