<?xml version="1.0" encoding="utf-8"?>
<!-- Generator: Adobe Illustrator 23.0.0, SVG Export Plug-In . SVG Version: 6.00 Build 0)  -->
<svg version="1.1" id="Layer_1" xmlns="http://www.w3.org/2000/svg" xmlns:xlink="http://www.w3.org/1999/xlink" x="0px" y="0px"
	 viewBox="0 0 240 240" style="enable-background:new 0 0 240 240;" xml:space="preserve">
<style type="text/css">
	.st0{fill:#FFFFFF;}
</style>
<path class="st0" d="M209,20H31.1C25,20,20,25,20,31.1V209c0.1,6.1,5,11,11.1,11h95.8v-77.3h-26v-30.3h26V90.2
	c0-25.8,15.8-39.9,38.9-39.9c7.8,0,15.6,0.4,23.3,1.2v26.9h-16c-12.5,0-15,6-15,14.7v19.4h30l-3.9,30.3h-26.1V220H209
	c6.1,0,11-5,11-11V31.1C220,25,215.1,20,209,20z"/>
</svg>
