<?xml version="1.0" encoding="UTF-8"?>
<svg width="21px" height="22px" viewBox="0 0 21 22" version="1.1" xmlns="http://www.w3.org/2000/svg" xmlns:xlink="http://www.w3.org/1999/xlink">
    <!-- Generator: Sketch 51.3 (57544) - http://www.bohemiancoding.com/sketch -->
    <title>google play</title>
    <desc>Created with Sketch.</desc>
    <defs></defs>
    <g id="Symbols" stroke="none" stroke-width="1" fill="none" fill-rule="evenodd">
        <g id="Google-play-button" transform="translate(-7.000000, -13.000000)" fill="#008DE4">
            <path d="M8.61910394,34.995639 C8.22856188,34.8904429 7.97435897,34.5027041 7.97435897,33.9026958 L7.97435897,14.0973042 C7.97435897,13.5416051 8.1895963,13.1668265 8.53078904,13.0305642 L8.53078904,13.0305642 L18.2635661,24.0678276 L8.61910394,34.995639 L8.61910394,34.995639 Z M9.95889065,34.575234 L21.6740827,27.9354564 L18.8206812,24.6996128 L9.95889065,34.575234 L9.95889065,34.575234 Z M21.7547546,20.1120809 L10.2028263,13.563314 L18.8375729,23.4174401 L21.7547546,20.1120809 L21.7547546,20.1120809 Z M22.5385435,20.5564095 L27.0639529,23.1218557 C27.920785,23.6075923 27.9286208,24.3905942 27.0639529,24.8806589 L22.4240551,27.5103973 L19.3976615,24.0566232 L22.5385435,20.5564095 L22.5385435,20.5564095 Z" id="google-play"></path>
        </g>
    </g>
</svg>
