<?xml version="1.0" encoding="utf-8"?>
<!-- Generator: Adobe Illustrator 23.0.0, SVG Export Plug-In . SVG Version: 6.00 Build 0)  -->
<svg version="1.1" id="Layer_1" xmlns="http://www.w3.org/2000/svg" xmlns:xlink="http://www.w3.org/1999/xlink" x="0px" y="0px"
	 viewBox="0 0 1398.1 651.3" style="enable-background:new 0 0 1398.1 651.3;" xml:space="preserve">
<style type="text/css">
	.st0{fill:#FFFFFF;}
</style>
<path class="st0" d="M297.6,0H132.1l-13.7,76.6l149.3,0.2c73.5,0,95.3,26.7,94.6,71c-0.3,22.7-10.2,61.1-14.4,73.5
	c-11.3,33.2-34.6,71-121.9,70.9l-145-0.1l-13.7,76.7h165.1c58.2,0,83-6.8,109.2-18.9c58.1-26.8,92.7-84.2,106.6-159.1
	C468.7,79.3,443,0,297.6,0z"/>
<path class="st0" d="M809.2,369l11.7-66.6h141.3c11.1,0,18.9-6.7,20.5-17.8c2.2-11.1-3.3-17.8-14.4-17.8h-67.6
	c-53.3,0-78.8-31.1-69.4-84.4S877.4,98,930.7,98h153.5l-12.2,66.6H936.7c-11.1,0-18.9,6.7-20.5,17.8c-2.2,11.1,3.3,17.8,14.4,17.8
	h67.6c53.3,0,78.8,31.1,69.4,84.4S1022,369,968.7,369H809.2z"/>
<path class="st0" d="M594,368.9c-87.7,0-127.2-47.8-111.6-135.5c15-87.7,71.6-135.5,159.4-135.5h155.5l-47.8,271H594z M695,164.6
	h-40c-47.8,0-76,21.1-84.3,68.8c-8.9,47.8,8.9,68.9,56.6,68.9h43.8L695,164.6z"/>
<path class="st0" d="M1276.9,368.9l27.8-157.7c5-31.1-7.6-44.4-38.7-44.4h-44.2l-35.5,202.1h-90l65-368.9h90L1234,98h67.4
	c78.8,0,107.2,34.4,93.3,113.3L1366.9,369L1276.9,368.9z"/>
<path class="st0" d="M60.8,145.9c-43.3,0-49.5,28.2-53.6,45.3C1.8,213.5,0,222.6,0,222.6h169.4c43.3,0,49.5-28.2,53.6-45.3
	c5.4-22.4,7.1-31.4,7.1-31.4L60.8,145.9L60.8,145.9z"/>
<g>
	<path class="st0" d="M670.4,469.4l-9.4,46.4h73.9l-4.8,24h-73.7l-11.8,58.4h-28.3l30.5-152.6h111.4l-4.8,23.8H670.4z"/>
	<path class="st0" d="M777.1,593.3c-8.5-4.3-15.1-10.3-19.7-18c-4.7-7.7-7-16.6-7-26.8c0-12.9,2.9-24.6,8.8-34.9
		c5.9-10.3,14.1-18.4,24.6-24.3c10.5-5.9,22.4-8.8,35.6-8.8c11.3,0,21.3,2.1,29.9,6.3c8.6,4.2,15.2,10.2,19.8,17.9
		c4.6,7.7,7,16.6,7,26.8c0,12.9-3,24.6-8.9,34.9c-6,10.3-14.2,18.5-24.7,24.4c-10.5,6-22.4,8.9-35.6,8.9
		C795.6,599.7,785.6,597.6,777.1,593.3z M829.2,570.8c6-3.7,10.8-8.9,14.3-15.5c3.5-6.6,5.2-14.1,5.2-22.6c0-9.2-2.7-16.3-8.1-21.5
		c-5.4-5.2-12.9-7.7-22.7-7.7c-7.7,0-14.6,1.9-20.6,5.6c-6,3.7-10.8,8.9-14.3,15.5c-3.5,6.6-5.2,14.1-5.2,22.6
		c0,9.2,2.7,16.3,8.1,21.5c5.4,5.2,12.9,7.7,22.7,7.7C816.3,576.4,823.2,574.5,829.2,570.8z"/>
	<path class="st0" d="M954.6,484.2c7.3-2.5,16.1-3.7,26.3-3.7l-5,25.9c-2.5-0.4-4.7-0.7-6.8-0.7c-22.2,0-35.7,11.7-40.3,35.1
		l-11.6,57.3h-27.3L913,481.8H939l-3.1,15C941,490.9,947.2,486.7,954.6,484.2z"/>
	<path class="st0" d="M1117.5,481.8l-23.3,116.4h-25.9l2.6-12.9c-10.5,9.6-23.6,14.4-39.5,14.4c-12.8,0-23-3.5-30.6-10.4
		c-7.6-6.9-11.4-16.6-11.4-29.1c0-4.6,0.5-9.3,1.5-14l12.9-64.5h27.3l-12.9,63.9c-0.6,2.9-0.9,5.9-0.9,8.9c0,6.8,1.9,12.1,5.8,15.7
		c3.8,3.6,9.6,5.5,17.3,5.5c9.9,0,18.1-2.8,24.6-8.4c6.5-5.6,10.9-14,13.1-25.2l12.2-60.4H1117.5z"/>
	<path class="st0" d="M1327.8,490.5c7.5,6.7,11.2,16.3,11.2,28.8c0,4.7-0.5,9.4-1.5,14.4l-12.9,64.5h-27.3l12.9-63.9
		c0.6-2.9,0.9-6,0.9-9.2c0-14-7.4-20.9-22.2-20.9c-19.3,0-31.2,11.1-35.8,33.4l-12.2,60.6h-27.3l12.9-63.9c0.6-2.9,0.9-6,0.9-9.2
		c0-14-7.4-20.9-22.2-20.9c-19.3,0-31.2,11.2-35.8,33.6l-12.2,60.4H1130l23.1-116.4h25.9l-2.4,12.6c9.9-9.3,22.6-14,38.2-14
		c8.4,0,15.8,1.6,22,4.9c6.2,3.3,11,8,14.2,14.3c11.9-12.8,27.3-19.2,46-19.2C1310,480.5,1320.3,483.8,1327.8,490.5z"/>
</g>
</svg>
