<?xml version="1.0" encoding="utf-8"?>
<!-- Generator: Adobe Illustrator 23.0.0, SVG Export Plug-In . SVG Version: 6.00 Build 0)  -->
<svg version="1.1" id="Layer_1" xmlns="http://www.w3.org/2000/svg" xmlns:xlink="http://www.w3.org/1999/xlink" x="0px" y="0px"
	 viewBox="0 0 200 200" style="enable-background:new 0 0 200 200;" xml:space="preserve">
<style type="text/css">
	.st0{fill:#FFFFFF;}
</style>
<path class="st0" d="M195.1,51.7c-2.3-8.6-9-15.3-17.6-17.6C162,30,99.9,30,99.9,30s-62.1,0-77.6,4.2c-8.6,2.3-15.3,9-17.6,17.6
	C0.5,67.2,0.5,99.6,0.5,99.6s0,32.3,4.2,47.8c2.3,8.6,9,15.3,17.6,17.6c15.5,4.2,77.6,4.2,77.6,4.2s62.1,0,77.6-4.2
	c8.6-2.3,15.3-9,17.6-17.6c4.2-15.5,4.2-47.8,4.2-47.8S199.2,67.2,195.1,51.7z M80,129.4V69.7l51.6,29.9L80,129.4z"/>
</svg>
