<?xml version="1.0" encoding="UTF-8"?>
<svg width="26px" height="25px" viewBox="0 0 26 25" version="1.1" xmlns="http://www.w3.org/2000/svg" xmlns:xlink="http://www.w3.org/1999/xlink">
    <!-- Generator: Sketch 51.3 (57544) - http://www.bohemiancoding.com/sketch -->
    <title>Group 14</title>
    <desc>Created with Sketch.</desc>
    <defs></defs>
    <g id="Symbols" stroke="none" stroke-width="1" fill="none" fill-rule="evenodd">
        <g id="Footer_grid" transform="translate(-132.000000, -619.000000)" fill="#FFFFFF">
            <g id="Group-18">
                <g id="Group-14" transform="translate(132.000000, 619.000000)">
                    <path d="M13,0 C5.82123932,0 0,5.73773258 0,12.8163564 C0,18.4789583 3.72489567,23.2828635 8.89019342,24.9777602 C9.53989203,25.0963987 9.77841624,24.6995221 9.77841624,24.3612219 C9.77841624,24.0558179 9.76636087,23.0460109 9.76076373,21.9750807 C6.14415116,22.7503696 5.38100285,20.462917 5.38100285,20.462917 C4.78964364,18.9817395 3.93758694,18.5876218 3.93758694,18.5876218 C2.75788236,17.7921707 4.02649533,17.8085127 4.02649533,17.8085127 C5.33192025,17.8989242 6.01929191,19.129454 6.01929191,19.129454 C7.17876068,21.0885814 9.06047559,20.5221302 9.80231172,20.1948661 C9.91899053,19.366731 10.2558952,18.8011287 10.6276744,18.4810806 C7.74019673,18.1572123 4.70461019,17.058055 4.70461019,12.1471842 C4.70461019,10.7479287 5.21244287,9.60462688 6.04426376,8.70709142 C5.90928661,8.38428428 5.4643141,7.08074614 6.17019938,5.31517568 C6.17019938,5.31517568 7.26185666,4.97093295 9.74590978,6.62911326 C10.7828873,6.34514484 11.8949957,6.20273617 12.9997847,6.19764256 C14.1045738,6.20252393 15.2175432,6.34493261 16.2564582,6.62911326 C18.7377128,4.97093295 19.8278632,5.31517568 19.8278632,5.31517568 C20.5354706,7.08053391 20.0904981,8.38407204 19.955521,8.70709142 C20.7890641,9.60462688 21.2934523,10.7479287 21.2934523,12.1471842 C21.2934523,17.0697279 18.2522687,18.1536043 15.3574717,18.4708934 C15.8237564,18.868619 16.2392363,19.6485771 16.2392363,20.8443006 C16.2392363,22.5591473 16.2243823,23.9393017 16.2243823,24.3614341 C16.2243823,24.7024933 16.4583858,25.102129 17.1171259,24.9762746 C22.2798404,23.27968 26,18.4772604 26,12.8165686 C25.9997847,5.73773258 20.1794065,0 13,0 L13,0 Z" id="Shape"></path>
                </g>
            </g>
        </g>
    </g>
</svg>