<?xml version="1.0" encoding="utf-8"?>
<!-- Generator: Adobe Illustrator 23.0.0, SVG Export Plug-In . SVG Version: 6.00 Build 0)  -->
<svg version="1.1" id="Capa_1" xmlns="http://www.w3.org/2000/svg" xmlns:xlink="http://www.w3.org/1999/xlink" x="0px" y="0px"
	 viewBox="0 0 512 448" style="enable-background:new 0 0 512 448;" xml:space="preserve">
<style type="text/css">
	.st0{fill:#FFFFFF;}
</style>
<g>
	<path class="st0" d="M128,256c0,17.7,14.3,32,32,32s32-14.3,32-32s-14.3-32-32-32S128,238.3,128,256z M320,256
		c0,17.7,14.3,32,32,32c17.7,0,32-14.3,32-32s-14.3-32-32-32C334.3,224,320,238.3,320,256z M321.6,324.4c8.2-6.5,20.2-5.1,26.7,3.2
		c6.5,8.2,5.1,20.2-3.2,26.7C322.1,372.3,287.2,384,256,384s-66.1-11.7-89.1-29.8c-8.2-6.5-9.7-18.4-3.2-26.7
		c6.5-8.2,18.4-9.7,26.7-3.2c13.2,10.4,39.4,21.6,65.6,21.6S308.3,334.8,321.6,324.4z M512,192c0-35.3-28.7-64-64-64
		c-24.1,0-45,13.3-55.9,32.9c-32.9-18-73-29.6-116.6-32.3l38.2-85.8l73.1,21.1C393.3,82.6,411.1,96,432,96c26.5,0,48-21.5,48-48
		S458.5,0,432,0c-18.3,0-34.2,10.2-42.3,25.3L308.3,1.7c-9.1-2.6-18.8,1.9-22.6,10.5l-51.9,116.5c-42.6,3-81.6,14.5-113.8,32.1
		C109,141.3,88.1,128,64,128c-35.3,0-64,28.7-64,64c0,26.2,15.7,48.6,38.2,58.6c-4,12-6.2,24.6-6.2,37.4c0,88.4,100.3,160,224,160
		c123.7,0,224-71.6,224-160c0-12.9-2.1-25.4-6.2-37.4C496.3,240.6,512,218.2,512,192z M432,30c9.9,0,18,8.1,18,18s-8.1,18-18,18
		s-18-8.1-18-18S422.1,30,432,30z M32,192c0-17.6,14.4-32,32-32c12.8,0,23.8,7.5,28.9,18.3c-16.7,12.7-30.6,27.3-40.8,43.4
		C40.3,217,32,205.4,32,192z M256,410c-102.7,0-186-54.6-186-122c0-67.4,83.3-122,186-122s186,54.6,186,122
		C442,355.4,358.7,410,256,410z M459.9,221.7c-10.2-16.1-24.1-30.7-40.8-43.4c5.1-10.8,16.2-18.3,28.9-18.3c17.6,0,32,14.4,32,32
		C480,205.4,471.7,217,459.9,221.7z"/>
</g>
</svg>
