<?xml version="1.0" encoding="UTF-8"?>
<svg width="16px" height="31px" viewBox="0 0 16 31" version="1.1" xmlns="http://www.w3.org/2000/svg" xmlns:xlink="http://www.w3.org/1999/xlink" preserveAspectRatio="xMinYMid">
    <!-- Generator: Sketch 51.3 (57544) - http://www.bohemiancoding.com/sketch -->
    <title>iPhone Vector</title>
    <desc>Created with Sketch.</desc>
    <defs></defs>
    <g id="Symbols" stroke="none" stroke-width="1" fill="none" fill-rule="evenodd">
        <g id="App-store-button" transform="translate(-13.000000, -9.000000)" fill="#008DE4">
            <path d="M15.2924099,9 C14.0263469,9 13,10.1216205 13,11.5106012 L13,37.4893988 C13,38.8759656 14.0252116,40 15.2924099,40 L26.7075901,40 C27.9736531,40 29,38.8783795 29,37.4893988 L29,11.5106012 C29,10.1240344 27.9747884,9 26.7075901,9 L15.2924099,9 L15.2924099,9 Z M14.5,13.0655738 L14.5,35.9344262 L27.5,35.9344262 L27.5,13.0655738 L14.5,13.0655738 L14.5,13.0655738 Z M21,38.9836066 C21.5522847,38.9836066 22,38.5285517 22,37.9672131 C22,37.4058745 21.5522847,36.9508197 21,36.9508197 C20.4477153,36.9508197 20,37.4058745 20,37.9672131 C20,38.5285517 20.4477153,38.9836066 21,38.9836066 L21,38.9836066 Z M19,11.0327869 C19,11.3134562 19.171875,11.5409836 19.398159,11.5409836 L22.601841,11.5409836 C22.8217381,11.5409836 23,11.3052478 23,11.0327869 C23,10.7521176 22.828125,10.5245902 22.601841,10.5245902 L19.398159,10.5245902 C19.1782619,10.5245902 19,10.7603259 19,11.0327869 Z" id="iPhone-Vector"></path>
        </g>
    </g>
</svg>
