<?xml version="1.0" encoding="UTF-8"?>
<svg width="21px" height="21px" viewBox="0 0 21 21" version="1.1" xmlns="http://www.w3.org/2000/svg" xmlns:xlink="http://www.w3.org/1999/xlink">
    <!-- Generator: Sketch 51.3 (57544) - http://www.bohemiancoding.com/sketch -->
    <title>Group 12</title>
    <desc>Created with Sketch.</desc>
    <defs></defs>
    <g id="Symbols" stroke="none" stroke-width="1" fill="none" fill-rule="evenodd">
        <g id="Footer_grid" transform="translate(-789.000000, -622.000000)" fill="#FFFFFF">
            <g id="Group-18">
                <g id="Group-12" transform="translate(789.000000, 622.000000)">
                    <path d="M16.9415645,3.55271368e-15 L4.05843553,3.55271368e-15 C1.82059868,3.55271368e-15 1.0658141e-14,1.8202118 1.0658141e-14,4.0580938 L1.0658141e-14,8.34493192 L1.0658141e-14,16.9419062 C1.0658141e-14,19.1797882 1.82059868,21 4.05843553,21 L16.9419881,21 C19.1798249,21 21,19.1797882 21,16.9419062 L21,8.34450832 L21,4.0576702 C20.9995764,1.8197882 19.1794013,3.55271368e-15 16.9415645,3.55271368e-15 L16.9415645,3.55271368e-15 Z M18.1055954,2.42003026 L18.5698523,2.41833585 L18.5698523,2.88048411 L18.5698523,5.97785174 L15.0222688,5.98928896 L15.0099847,2.43019667 L18.1055954,2.42003026 L18.1055954,2.42003026 Z M7.50266258,8.34450832 C8.17532677,7.41385779 9.26649992,6.80344932 10.5,6.80344932 C11.7335001,6.80344932 12.8246732,7.41385779 13.4964902,8.34450832 C13.9340608,8.95195159 14.1962643,9.69494705 14.1962643,10.4997882 C14.1962643,12.5377307 12.5366306,14.1957035 10.4995764,14.1957035 C8.46125141,14.1957035 6.80331209,12.5377307 6.80331209,10.4997882 C6.80373568,9.69494705 7.06509198,8.95195159 7.50266258,8.34450832 L7.50266258,8.34450832 Z M18.9536268,16.9414826 C18.9536268,18.0517398 18.0509521,18.9535855 16.9415645,18.9535855 L4.05843553,18.9535855 C2.94862433,18.9535855 2.04594965,18.0517398 2.04594965,16.9414826 L2.04594965,8.34450832 L5.1805309,8.34450832 C4.90985558,9.01040847 4.75778603,9.73773071 4.75778603,10.4997882 C4.75778603,13.6653555 7.33322575,16.2425416 10.5,16.2425416 C13.6663507,16.2425416 16.2417904,13.6653555 16.2417904,10.4997882 C16.2417904,9.73773071 16.0888736,9.01040847 15.8181983,8.34450832 L18.9536268,8.34450832 L18.9536268,16.9414826 L18.9536268,16.9414826 Z" id="Shape"></path>
                </g>
            </g>
        </g>
    </g>
</svg>