<?xml version="1.0" encoding="UTF-8"?>
<svg width="18px" height="24px" viewBox="0 0 18 24" version="1.1" xmlns="http://www.w3.org/2000/svg" xmlns:xlink="http://www.w3.org/1999/xlink" preserveAspectRatio="none slice">
    <!-- Generator: Sketch 51.3 (57544) - http://www.bohemiancoding.com/sketch -->
    <title>Download</title>
    <desc>Created with Sketch.</desc>
    <defs></defs>
    <g id="Symbols" stroke="none" stroke-width="1" fill="none" fill-rule="evenodd">
        <g id="Download-icon" transform="translate(0.097902, 0.000000)" fill="#008DE4">
            <g id="Download">
                <path d="M5.075,11.325 C4.91897956,11.1662181 4.66378187,11.1639796 4.505,11.32 C4.34621813,11.4760204 4.34397956,11.7312181 4.5,11.89 L8.5,15.89 C8.57705995,15.9629622 8.67888305,16.0040487 8.785,16.005 C8.91178521,16.0044314 9.02993506,15.940668 9.1,15.835 L13.06,11.88 C13.2157533,11.723869 13.2157533,11.471131 13.06,11.315 C12.9856791,11.2389502 12.8838352,11.1960774 12.7775,11.1960774 C12.6711648,11.1960774 12.5693209,11.2389502 12.495,11.315 L9.2,14.615 L9.2,0.4 C9.2,0.1790861 9.0209139,1.3527075e-17 8.8,0 C8.5790861,-1.3527075e-17 8.4,0.1790861 8.4,0.4 L8.4,14.65 L5.075,11.325 Z" id="Path"></path>
                <path d="M11.6,6.4 C11.3790861,6.4 11.2,6.5790861 11.2,6.8 C11.2,7.0209139 11.3790861,7.2 11.6,7.2 L16.8,7.2 L16.8,22.8 L0.8,22.8 L0.8,7.2 L6,7.2 C6.2209139,7.2 6.4,7.0209139 6.4,6.8 C6.4,6.5790861 6.2209139,6.4 6,6.4 L0,6.4 L0,23.6 L17.6,23.6 L17.6,6.4 L11.6,6.4 Z" id="Path"></path>
            </g>
        </g>
    </g>
</svg>
