<?xml version="1.0" encoding="utf-8"?>
<!-- Generator: Adobe Illustrator 23.0.0, SVG Export Plug-In . SVG Version: 6.00 Build 0)  -->
<svg version="1.1" id="Logo" xmlns="http://www.w3.org/2000/svg" xmlns:xlink="http://www.w3.org/1999/xlink" x="0px" y="0px"
	 viewBox="0 0 240 240" style="enable-background:new 0 0 240 240;" xml:space="preserve">
<style type="text/css">
	.st0{fill:#FFFFFF;}
</style>
<path class="st0" d="M120,38c26.7,0,29.9,0.1,40.4,0.6c9.7,0.4,15,2.1,18.6,3.4c4.7,1.8,8,4,11.5,7.5c3.5,3.5,5.7,6.8,7.5,11.5
	c1.4,3.5,3,8.8,3.4,18.6c0.5,10.5,0.6,13.7,0.6,40.4s-0.1,29.9-0.6,40.4c-0.4,9.7-2.1,15-3.4,18.6c-1.8,4.7-4,8-7.5,11.5
	c-3.5,3.5-6.8,5.7-11.5,7.5c-3.5,1.4-8.8,3-18.6,3.4c-10.5,0.5-13.7,0.6-40.4,0.6s-29.9-0.1-40.4-0.6c-9.7-0.4-15-2.1-18.6-3.4
	c-4.7-1.8-8-4-11.5-7.5C46,187,43.9,183.6,42,179c-1.4-3.5-3-8.8-3.4-18.6C38.1,149.9,38,146.7,38,120s0.1-29.9,0.6-40.4
	c0.4-9.7,2.1-15,3.4-18.6c1.8-4.7,4-8,7.5-11.5C53,46,56.4,43.9,61,42c3.5-1.4,8.8-3,18.6-3.4C90.1,38.1,93.3,38,120,38 M120,20
	c-27.2,0-30.6,0.1-41.2,0.6c-10.6,0.5-17.9,2.2-24.3,4.6c-6.6,2.6-12.2,6-17.7,11.5c-5.6,5.6-9,11.1-11.5,17.7
	c-2.5,6.4-4.2,13.6-4.6,24.3C20.1,89.4,20,92.8,20,120c0,27.2,0.1,30.6,0.6,41.2c0.5,10.6,2.2,17.9,4.6,24.3
	c2.6,6.6,6,12.2,11.5,17.7c5.6,5.6,11.1,9,17.7,11.5c6.4,2.5,13.6,4.2,24.3,4.6c10.7,0.5,14.1,0.6,41.2,0.6s30.6-0.1,41.2-0.6
	c10.6-0.5,17.9-2.2,24.3-4.6c6.6-2.6,12.2-6,17.7-11.5c5.6-5.6,9-11.1,11.5-17.7c2.5-6.4,4.2-13.6,4.6-24.3
	c0.5-10.7,0.6-14.1,0.6-41.2s-0.1-30.6-0.6-41.2c-0.5-10.6-2.2-17.9-4.6-24.3c-2.6-6.6-6-12.2-11.5-17.7c-5.6-5.6-11.1-9-17.7-11.5
	c-6.4-2.5-13.6-4.2-24.3-4.6C150.6,20.1,147.2,20,120,20L120,20z"/>
<path class="st0" d="M120,68.6c-28.4,0-51.4,23-51.4,51.4s23,51.4,51.4,51.4s51.4-23,51.4-51.4S148.4,68.6,120,68.6z M120,153.3
	c-18.4,0-33.3-14.9-33.3-33.3s14.9-33.3,33.3-33.3c18.4,0,33.3,14.9,33.3,33.3S138.4,153.3,120,153.3z"/>
<circle class="st0" cx="173.4" cy="66.6" r="12"/>
</svg>
