<?xml version="1.0" encoding="utf-8"?>
<!-- Generator: Adobe Illustrator 23.0.0, SVG Export Plug-In . SVG Version: 6.00 Build 0)  -->
<svg version="1.1" id="Layer_1" xmlns="http://www.w3.org/2000/svg" xmlns:xlink="http://www.w3.org/1999/xlink" x="0px" y="0px"
	 viewBox="0 0 195 115" style="enable-background:new 0 0 195 115;" xml:space="preserve">
<style type="text/css">
	.st0{fill:#FFFFFF;}
</style>
<title>dash_instantSend_icon</title>
<g id="Page-1">
	<g id="icons">
		<g id="Group-7">
			<path class="st0" d="M148.4,25.8c0.2-0.7,0.3-1.5,0.5-2.1l0.1-0.4c3-13.4,4-18.9,4.1-19.1l0.5-2.7H54.7
				c-26.1,0-30.3,18.8-32.6,28.8L22,30.6c-3,13.4-4,18.9-4.1,19.1l-0.5,2.7h28.5c-0.2,0.7-0.3,1.5-0.5,2.1L45.3,55
				c-3,13.4-4,18.9-4.1,19.1l-0.5,2.7h98.9c26.1,0,30.3-18.8,32.6-28.8l0.1-0.4c3-13.4,4-18.9,4.1-19.1l0.5-2.7H148.4z M23,47.8
				c0.6-2.9,1.7-8.1,3.5-16.2l0.1-0.4C29,20.5,32.3,6,54.7,6H148c-0.6,2.9-1.7,8.1-3.5,16.2l-0.1,0.4c-0.2,1-0.5,2.1-0.7,3.1H78
				c-21,0-27.8,12.1-30.9,22.1H23z M142.4,30.3c-2.9,8.8-8.8,17.4-26.1,17.4H51.9c2.9-8.8,8.8-17.5,26.1-17.5L142.4,30.3z
				 M167.8,46.5l-0.1,0.4c-2.4,10.6-5.7,25.2-28.1,25.2H46.3c0.6-2.9,1.7-8.1,3.5-16.2l0.1-0.4c0.2-1,0.5-2.1,0.7-3.1h65.7
				c21,0,27.8-12.1,30.9-22.1h24.1C170.7,33.2,169.6,38.4,167.8,46.5z"/>
			<path id="InstantSend" class="st0" d="M7,92h4l-4.3,21.3h-4L7,92z M23.9,96.8c1.6-0.1,3.1,0.4,4.3,1.4c1.1,1,1.7,2.5,1.6,4
				c0,0.7-0.1,1.3-0.2,1.9l-1.8,9H24l1.8-8.9c0.1-0.4,0.1-0.8,0.1-1.3c0-2-1.1-3-3.3-3c-1.3,0-2.5,0.4-3.5,1.2
				c-1,0.9-1.6,2.2-1.9,3.5l-1.7,8.4h-3.8L15,96.9h3.6l-0.4,1.8C19.8,97.4,21.8,96.7,23.9,96.8z M37.9,113.5c-1.3,0-2.6-0.2-3.9-0.5
				c-1-0.2-2-0.7-2.9-1.3l1.6-2.9c0.8,0.5,1.6,0.9,2.5,1.1c1,0.3,2.1,0.4,3.1,0.4c0.9,0.1,1.9-0.1,2.8-0.5c0.6-0.3,0.9-0.8,0.9-1.4
				c0-0.5-0.3-0.9-0.8-1.1c-0.8-0.3-1.6-0.5-2.5-0.7c-1-0.2-1.9-0.4-2.8-0.7c-0.7-0.2-1.4-0.7-1.9-1.3c-0.6-0.7-0.9-1.5-0.8-2.4
				c0-1.6,0.8-3.1,2.1-4c1.7-1.1,3.6-1.6,5.6-1.5c1.1,0,2.2,0.1,3.3,0.4c0.9,0.2,1.8,0.5,2.6,1l-1.4,2.9c-0.7-0.4-1.5-0.8-2.3-0.9
				c-0.8-0.2-1.7-0.3-2.5-0.3c-0.9-0.1-1.9,0.1-2.7,0.6c-0.6,0.3-0.9,0.8-0.9,1.4c0,0.5,0.3,1,0.8,1.1c0.8,0.3,1.6,0.6,2.5,0.7
				c0.9,0.2,1.9,0.4,2.8,0.7c0.7,0.2,1.4,0.7,1.9,1.2c0.5,0.6,0.8,1.5,0.8,2.3c0,1.6-0.8,3.1-2.1,4C41.9,113,39.9,113.5,37.9,113.5
				L37.9,113.5z M53.1,107.8c0,0.2-0.1,0.5-0.1,0.7c0,1.2,0.6,1.8,1.9,1.8c0.8,0,1.5-0.2,2.1-0.6l0.7,2.8c-1.2,0.7-2.5,1-3.9,1
				c-1.2,0.1-2.4-0.4-3.4-1.2c-0.9-0.8-1.3-2-1.3-3.2c0-0.4,0-0.9,0.1-1.3l1.5-7.7h-2.6l0.6-3h2.6l0.7-3.7H56l-0.8,3.7h4.4l-0.6,3
				h-4.4L53.1,107.8z M79,97l-3.2,16.2h-3.6l0.3-1.7c-2.5,2.1-6,2.4-8.9,1c-1.1-0.6-2-1.4-2.6-2.5c-0.6-1.2-1-2.5-0.9-3.8
				c0-1.7,0.4-3.4,1.2-4.9c0.8-1.4,1.9-2.6,3.3-3.4c1.4-0.8,3-1.2,4.7-1.2c2.6,0,4.4,0.9,5.5,2.6l0.5-2.4L79,97z M68.1,110.2
				c2.1,0,3.9-1.1,4.9-2.9c0.5-1,0.8-2,0.7-3.1c0.1-1.1-0.3-2.2-1.1-3c-0.9-0.8-2-1.2-3.2-1.1c-1,0-2,0.3-2.9,0.8
				c-0.8,0.5-1.5,1.3-2,2.2c-0.5,1-0.7,2-0.7,3.1c-0.1,1.1,0.4,2.2,1.1,3C65.8,109.9,67,110.3,68.1,110.2L68.1,110.2z M92.6,96.8
				c1.6-0.1,3.1,0.4,4.3,1.4c1.1,1,1.7,2.5,1.6,4c0,0.7-0.1,1.3-0.2,1.9l-1.8,9h-3.8l1.8-8.9c0.1-0.4,0.1-0.8,0.1-1.3
				c0-2-1.1-3-3.3-3c-1.3,0-2.5,0.4-3.5,1.2c-1,0.9-1.6,2.2-1.9,3.5l-1.7,8.4h-3.8l3.2-16.2h3.6l-0.4,1.8
				C88.6,97.4,90.6,96.7,92.6,96.8z M106.5,107.8c0,0.2-0.1,0.5-0.1,0.7c0,1.2,0.6,1.8,1.9,1.8c0.8,0,1.5-0.2,2.1-0.6l0.7,2.8
				c-1.2,0.7-2.5,1-3.9,1c-1.2,0.1-2.4-0.4-3.4-1.2c-0.9-0.8-1.3-2-1.3-3.2c0-0.4,0-0.9,0.1-1.3l1.5-7.7h-2.6l0.6-3h2.6l0.7-3.7h3.8
				l-0.8,3.7h4.4l-0.6,3H108L106.5,107.8z M121.1,113.6c-1.6,0-3.2-0.2-4.7-0.7c-1.3-0.4-2.5-1-3.5-1.8l1.7-3.1c1,0.7,2,1.3,3.2,1.7
				c1.2,0.4,2.5,0.6,3.8,0.6c1.3,0.1,2.6-0.2,3.7-0.8c0.8-0.4,1.4-1.3,1.4-2.2c0-0.5-0.2-1-0.6-1.3c-0.4-0.4-0.9-0.7-1.4-0.9
				c-0.5-0.2-1.3-0.5-2.3-0.8c-1.1-0.3-2.3-0.7-3.4-1.2c-0.9-0.4-1.6-1-2.2-1.7c-0.6-0.8-1-1.9-0.9-2.9c0-1.3,0.4-2.6,1.2-3.6
				c0.8-1.1,2-1.9,3.3-2.4c1.5-0.6,3.2-0.9,4.8-0.8c1.3,0,2.6,0.2,3.9,0.5c1.1,0.3,2.2,0.7,3.2,1.3l-1.6,3.1c-0.8-0.5-1.7-1-2.7-1.2
				c-1-0.3-2.1-0.4-3.1-0.4c-1.3-0.1-2.6,0.2-3.8,0.9c-0.8,0.5-1.4,1.3-1.4,2.3c0,0.5,0.2,1,0.6,1.4c0.4,0.4,0.9,0.7,1.4,0.9
				c0.5,0.2,1.4,0.5,2.4,0.8c1.1,0.3,2.2,0.7,3.3,1.1c0.8,0.4,1.6,0.9,2.2,1.6c0.6,0.8,0.9,1.8,0.9,2.8c0,1.3-0.4,2.6-1.2,3.7
				c-0.9,1.1-2,1.9-3.3,2.4C124.4,113.3,122.8,113.6,121.1,113.6L121.1,113.6z M149.6,104c0,0.8-0.1,1.6-0.3,2.3h-12.9
				c0.1,2.7,1.6,4,4.7,4c0.9,0,1.8-0.1,2.6-0.4c0.8-0.3,1.5-0.7,2.1-1.2l1.6,2.6c-0.9,0.8-1.9,1.3-3,1.7c-1.2,0.4-2.4,0.6-3.7,0.6
				c-1.5,0-2.9-0.3-4.2-0.9c-1.2-0.5-2.1-1.4-2.8-2.5c-0.7-1.1-1-2.4-1-3.8c0-1.7,0.4-3.4,1.2-4.9c0.8-1.4,1.9-2.6,3.3-3.4
				c1.5-0.8,3.1-1.2,4.8-1.2c2-0.1,4,0.6,5.5,1.9C149,100.1,149.7,102,149.6,104z M142,99.9c-2.4-0.1-4.6,1.5-5.1,3.9h9.3
				c0.1-1.1-0.3-2.1-1.1-2.8C144.2,100.2,143.1,99.8,142,99.9L142,99.9z M163.3,96.9c1.6-0.1,3.1,0.4,4.3,1.4c1.1,1,1.7,2.5,1.6,4
				c0,0.7-0.1,1.3-0.2,1.9l-1.8,9h-3.8l1.8-8.9c0.1-0.4,0.1-0.8,0.1-1.3c0-2-1.1-3-3.3-3c-1.3,0-2.5,0.4-3.5,1.2
				c-1,0.9-1.6,2.2-1.9,3.5l-1.7,8.4h-3.8l3.2-16.2h3.6l-0.4,1.8C159.3,97.4,161.3,96.7,163.3,96.9L163.3,96.9z M192.3,90.7
				l-4.5,22.6h-3.6l0.3-1.7c-2.5,2.1-6,2.4-8.9,1c-1.1-0.6-2-1.4-2.6-2.5c-0.6-1.2-1-2.5-0.9-3.8c0-1.7,0.4-3.4,1.2-4.9
				c0.8-1.4,1.9-2.6,3.3-3.4c1.4-0.8,3-1.2,4.7-1.2c1.1,0,2.3,0.2,3.3,0.6c0.9,0.4,1.7,1.1,2.2,1.9l1.7-8.7L192.3,90.7z
				 M180.2,110.3c1,0,2-0.3,2.9-0.8c0.9-0.5,1.6-1.3,2-2.2c0.5-1,0.7-2.1,0.7-3.1c0.1-1.1-0.3-2.2-1.1-3c-0.9-0.8-2-1.2-3.2-1.1
				c-2,0-3.9,1.1-4.9,2.9c-0.5,1-0.7,2.1-0.7,3.1c-0.1,1.1,0.4,2.2,1.1,3C178,109.9,179.1,110.3,180.2,110.3L180.2,110.3z"/>
		</g>
	</g>
</g>
</svg>
