<?xml version="1.0" encoding="utf-8"?>
<!-- Generator: Adobe Illustrator 23.0.0, SVG Export Plug-In . SVG Version: 6.00 Build 0)  -->
<svg version="1.1" id="Layer_1" xmlns="http://www.w3.org/2000/svg" xmlns:xlink="http://www.w3.org/1999/xlink" x="0px" y="0px"
	 viewBox="0 0 154.4 89.4" style="enable-background:new 0 0 154.4 89.4;" xml:space="preserve">
<style type="text/css">
	.st0{fill:#008DE4;}
</style>
<title>dash_instantSend_noText</title>
<path class="st0" d="M119.7,33.7c0.1-0.6,0.3-1.2,0.4-1.8l0.1-0.3c2.5-11.1,3.3-15.6,3.4-15.8l0.4-2.3H42c-21.6,0-25.1,15.5-27,23.9
	l-0.1,0.3c-2.5,11.1-3.3,15.6-3.4,15.8l-0.4,2.3h23.6c-0.2,0.6-0.3,1.2-0.4,1.8l-0.1,0.3c-2.5,11.1-3.3,15.6-3.4,15.8L30.5,76h82
	c21.6,0,25.1-15.5,27-23.9l0.1-0.3c2.5-11.1,3.3-15.7,3.4-15.8l0.4-2.3L119.7,33.7z M15.8,52c0.5-2.4,1.4-6.7,2.9-13.4l0.1-0.3
	c2-8.8,4.7-20.9,23.3-20.9h77.3c-0.5,2.4-1.4,6.7-2.9,13.4l-0.1,0.3c-0.2,0.8-0.4,1.7-0.6,2.6H61.3c-17.4,0-23.1,10-25.6,18.3H15.8z
	 M114.7,37.5c-2.4,7.3-7.3,14.5-21.6,14.5H39.7c2.4-7.4,7.3-14.5,21.6-14.5L114.7,37.5z M135.8,50.9l-0.1,0.3
	c-2,8.8-4.7,20.9-23.3,20.9H35.1c0.5-2.4,1.4-6.7,2.9-13.4l0.1-0.3c0.2-0.8,0.4-1.7,0.6-2.6h54.4c17.4,0,23.1-10,25.6-18.3h20
	C138.2,39.8,137.3,44.2,135.8,50.9L135.8,50.9z"/>
</svg>
