<svg width="22" height="22" viewBox="0 0 22 22" fill="none" xmlns="http://www.w3.org/2000/svg">
<path id="monogram-linkedin" fill-rule="evenodd" clip-rule="evenodd" d="M18.7473 18.7464H15.4846V13.6406C15.4846 12.4233 15.4638 10.857 13.7894 10.857C12.0911 10.857 11.832 12.1837 11.832 13.5538V18.7464H8.57291V8.24756H11.7006V9.68306H11.7458C12.1809 8.85744 13.2455 7.98722 14.8325 7.98722C18.1368 7.98722 18.7473 10.1609 18.7473 12.9886V18.7464ZM4.89402 6.81328C3.84597 6.81328 3.0008 5.96567 3.0008 4.92067C3.0008 3.87628 3.84597 3.02867 4.89402 3.02867C5.9378 3.02867 6.7848 3.87628 6.7848 4.92067C6.7848 5.96567 5.9378 6.81328 4.89402 6.81328ZM3.25991 18.7464H6.5263V8.24756H3.25991V18.7464ZM20.3722 0H1.62274C0.727466 0 0.000244141 0.710111 0.000244141 1.58644V20.4123C0.000244141 21.2887 0.727466 22 1.62274 22H20.3722C21.2694 22 21.9996 21.2887 21.9996 20.4123V1.58644C21.9996 0.710111 21.2694 0 20.3722 0Z" fill="#191C1F"/>
</svg>
