<svg width="26" height="20" viewBox="0 0 26 20" fill="none" xmlns="http://www.w3.org/2000/svg">
<path id="monogram-youtube" fill-rule="evenodd" clip-rule="evenodd" d="M23.1729 1.45478C24.2866 1.75462 25.1646 2.6327 25.4645 3.74637C26.0213 5.78096 25.9999 10.0215 25.9999 10.0215C25.9999 10.0215 25.9999 14.2406 25.4645 16.2752C25.1646 17.3888 24.2866 18.2669 23.1729 18.5667C21.1383 19.1022 12.9999 19.1022 12.9999 19.1022C12.9999 19.1022 4.88301 19.1022 2.82701 18.5453C1.71334 18.2455 0.835252 17.3674 0.535418 16.2537C0 14.2406 0 10.0001 0 10.0001C0 10.0001 0 5.78096 0.535418 3.74637C0.835252 2.6327 1.73475 1.7332 2.82701 1.43337C4.86159 0.897949 12.9999 0.897949 12.9999 0.897949C12.9999 0.897949 21.1383 0.897949 23.1729 1.45478ZM17.1759 9.99989L10.4082 13.8977V6.10205L17.1759 9.99989Z" fill="#191C1F"/>
</svg>
