<svg width="29" height="28" viewBox="0 0 29 28" fill="none" xmlns="http://www.w3.org/2000/svg">
<path id="monogram-telegram" fill-rule="evenodd" clip-rule="evenodd" d="M28.5 14C28.5 21.732 22.232 28 14.5 28C6.76803 28 0.5 21.732 0.5 14C0.5 6.26803 6.76803 0 14.5 0C22.232 0 28.5 6.26803 28.5 14ZM20.1928 10.0262C19.9358 11.2003 18.335 15.6764 17.8982 16.8536C17.8085 17.0951 17.7012 17.4088 17.5837 17.7524C17.2508 18.7256 16.8357 19.9393 16.5038 20.4369C15.6506 21.6211 14.759 20.0549 14.381 19.1354C13.4924 17.3941 13.3071 16.7271 12.8868 16.2823C12.4383 15.8076 11.7221 15.5859 9.59816 14.5818C8.22173 14.0665 7.62288 13.0735 8.85424 12.4228C9.32734 12.1977 11.2195 11.5563 12.3011 11.1897C12.5978 11.0891 12.8335 11.0093 12.9621 10.9643C13.114 10.9112 13.4567 10.7878 13.906 10.6261C15.2239 10.1516 17.4596 9.34676 18.4914 9.01463C19.875 8.56972 20.484 8.69905 20.1928 10.0262Z" fill="#191C1F"/>
</svg>
