<svg width="43" height="20" viewBox="0 0 43 20" fill="none" xmlns="http://www.w3.org/2000/svg">
<path id="monogram-dash_blog" fill-rule="evenodd" clip-rule="evenodd" d="M9.17226 0H4.09012L3.66942 2.35222L8.2541 2.35836C10.5111 2.35836 11.1805 3.17826 11.1591 4.53861C11.1498 5.23568 10.8458 6.41486 10.7169 6.79564C10.3699 7.81514 9.65437 8.97589 6.97358 8.97282L2.52095 8.96975L2.10025 11.325H7.17011C8.9573 11.325 9.71886 11.1162 10.5234 10.7447C12.3075 9.92169 13.37 8.15906 13.7969 5.85905C14.4264 2.43513 13.6372 0 9.17226 0ZM24.8825 11.3311L25.2418 9.28595H29.5808C29.9216 9.28595 30.1611 9.08021 30.2103 8.73935C30.2778 8.3985 30.1089 8.19275 29.7681 8.19275H27.6922C26.0555 8.19275 25.2725 7.23774 25.5611 5.60102C25.8498 3.96429 26.9767 3.00928 28.6135 3.00928H33.3271L32.9525 5.05442H28.7977C28.4569 5.05442 28.2173 5.26016 28.1682 5.60102C28.1007 5.94187 28.2695 6.14761 28.6104 6.14761H30.6863C32.323 6.14761 33.106 7.10263 32.8174 8.73935C32.5287 10.3761 31.4171 11.3311 29.7804 11.3311H24.8825ZM14.8471 7.16726C14.3681 9.86033 15.581 11.3282 18.2741 11.3282H23.0492L24.517 3.00635H19.7419C17.0458 3.00635 15.3077 4.47418 14.8471 7.16726ZM20.1473 5.05456H21.3756L20.6417 9.28302H19.2967C17.8319 9.28302 17.2853 8.63509 17.5586 7.16726C17.8135 5.70249 18.6794 5.05456 20.1473 5.05456ZM39.2447 11.3281L40.0984 6.48549C40.2519 5.53048 39.865 5.12206 38.91 5.12206H37.5527L36.4626 11.3281H33.6989L35.6949 0H38.4586L37.9273 3.00937H39.9971C42.4168 3.00937 43.2889 4.06571 42.8621 6.48856L42.0084 11.3312L39.2447 11.3281ZM0.259709 5.85138C0.385796 5.3246 0.587905 4.48022 1.90088 4.48022H7.09971C7.09971 4.48022 7.04751 4.7566 6.88169 5.44445L6.87692 5.46436C6.75083 5.99114 6.54872 6.83551 5.23575 6.83551H0.033844C0.033844 6.83551 0.089118 6.55607 0.25494 5.87129L0.259709 5.85138ZM30.0907 16.5853C30.2013 16.745 30.2596 16.9446 30.2596 17.181C30.2596 17.6631 30.0723 18.0286 29.6977 18.2804C29.323 18.5291 28.8194 18.655 28.1838 18.655H25.8346L26.7712 13.969H28.933C29.4182 13.969 29.7959 14.058 30.06 14.2392C30.3241 14.4204 30.4592 14.6814 30.4592 15.0192C30.4592 15.3079 30.3825 15.5566 30.232 15.7654C30.0815 15.9742 29.8758 16.1278 29.624 16.2322C29.8236 16.3059 29.9802 16.4256 30.0907 16.5853ZM29.0897 17.7706C29.2893 17.6355 29.3875 17.439 29.3875 17.181C29.3875 16.9814 29.3169 16.8371 29.1756 16.7481C29.0344 16.6621 28.8256 16.616 28.5431 16.616H27.1029L26.8357 17.9671H28.2421C28.6075 17.9702 28.8901 17.9027 29.0897 17.7706ZM27.499 14.6507L27.238 15.9435H28.4755C28.8071 15.9435 29.0682 15.879 29.2585 15.747C29.4489 15.6149 29.5472 15.4215 29.5472 15.1666C29.5472 14.8227 29.277 14.6507 28.7365 14.6507H27.499ZM32.6765 13.6865H31.8382L30.8463 18.655H31.6847L32.6765 13.6865ZM33.634 18.5046C33.373 18.3726 33.1703 18.1883 33.0291 17.9519C32.8847 17.7154 32.8141 17.4421 32.8141 17.1289C32.8141 16.7328 32.9032 16.3735 33.0843 16.0572C33.2655 15.7409 33.5173 15.4922 33.8398 15.311C34.1622 15.1298 34.5276 15.0408 34.933 15.0408C35.28 15.0408 35.587 15.1053 35.8511 15.2342C36.1152 15.3632 36.3179 15.5475 36.4591 15.7839C36.6004 16.0204 36.6741 16.2936 36.6741 16.6069C36.6741 17.003 36.582 17.3623 36.4008 17.6786C36.2165 17.9949 35.9647 18.2467 35.6423 18.4278C35.3199 18.6121 34.9545 18.7011 34.5491 18.7011C34.199 18.7011 33.895 18.6336 33.634 18.5046ZM35.2339 17.8137C35.4181 17.7001 35.5655 17.5404 35.673 17.3377C35.7805 17.135 35.8327 16.9047 35.8327 16.6437C35.8327 16.3612 35.7498 16.1432 35.584 15.9835C35.4181 15.8238 35.1878 15.7471 34.8869 15.7471C34.6504 15.7471 34.4386 15.8054 34.2543 15.919C34.0701 16.0326 33.9227 16.1923 33.8152 16.395C33.7077 16.5977 33.6555 16.828 33.6555 17.089C33.6555 17.3715 33.7384 17.5895 33.9042 17.7492C34.0701 17.9089 34.3004 17.9857 34.6013 17.9857C34.8378 17.9857 35.0496 17.9273 35.2339 17.8137ZM40.7552 18.1114L41.3632 15.0775H40.5678L40.4542 15.6671C40.3375 15.4552 40.1686 15.2986 39.9445 15.1942C39.7234 15.0898 39.4716 15.0376 39.1891 15.0376C38.8052 15.0376 38.4582 15.1236 38.1481 15.2986C37.8348 15.4736 37.5953 15.7101 37.4203 16.011C37.2453 16.312 37.1593 16.6467 37.1593 17.0121C37.1593 17.31 37.2268 17.571 37.3619 17.7952C37.4971 18.0193 37.6874 18.1913 37.93 18.311C38.1726 18.4308 38.449 18.4922 38.7561 18.4922C39.2167 18.4922 39.6067 18.354 39.9291 18.0777L39.8953 18.2527C39.8278 18.5997 39.6927 18.8607 39.4869 19.0296C39.2812 19.1985 38.9864 19.2845 38.6025 19.2845C38.3385 19.2845 38.0928 19.2476 37.8625 19.1739C37.6322 19.1002 37.4479 19.002 37.3097 18.8822L36.8737 19.5117C37.2882 19.8372 37.8471 20 38.5473 20C39.1614 20 39.6497 19.8495 40.012 19.5486C40.3744 19.2476 40.62 18.7686 40.7552 18.1114ZM40.009 17.1902C39.9046 17.3775 39.7572 17.5219 39.5729 17.6263C39.3887 17.7307 39.1768 17.7829 38.9403 17.7829C38.6455 17.7829 38.4152 17.7092 38.2463 17.5618C38.0774 17.4144 37.9945 17.2148 37.9945 16.966C37.9945 16.7327 38.0467 16.5239 38.1511 16.3396C38.2555 16.1523 38.4029 16.008 38.5903 15.9036C38.7776 15.7992 38.9895 15.7469 39.2259 15.7469C39.5207 15.7469 39.751 15.8206 39.9168 15.965C40.0827 16.1093 40.1656 16.3089 40.1656 16.5638C40.1656 16.7972 40.1134 17.006 40.009 17.1902Z" fill="#191C1F"/>
</svg>
