<svg width="27" height="30" viewBox="0 0 27 30" fill="none" xmlns="http://www.w3.org/2000/svg">
<path id="monogram-discord" fill-rule="evenodd" clip-rule="evenodd" d="M3.35628 0H23.6286C25.3381 0 26.73 1.39183 26.7451 3.10136V30L23.4773 27.171L21.6467 25.4917L19.7103 23.7065L20.5121 26.475H3.35628C1.64674 26.475 0.254913 25.0832 0.254913 23.3737V3.10136C0.254913 1.39183 1.64674 0 3.35628 0ZM16.7905 18.3812C17.2443 18.941 17.789 19.5915 17.789 19.5915C20.9565 19.4912 22.2638 17.5305 22.3925 17.3374C22.3997 17.3267 22.4032 17.3214 22.4032 17.3222C22.4032 12.4962 20.2247 8.57791 20.2247 8.57791C18.0613 6.95915 15.9887 7.00454 15.9887 7.00454L15.7769 7.2466C18.3487 8.01816 19.5439 9.1528 19.5439 9.1528C17.9705 8.3056 16.4274 7.882 14.9902 7.71558C13.9009 7.59455 12.857 7.62481 11.9342 7.74584C11.8549 7.74584 11.7872 7.75737 11.7109 7.77036C11.6998 7.77225 11.6885 7.77418 11.677 7.7761C11.1475 7.83661 9.86157 8.01816 8.24281 8.7292C7.68305 8.97126 7.35022 9.1528 7.35022 9.1528C7.35022 9.1528 8.59077 7.95764 11.3139 7.18608L11.1626 7.00454C11.1626 7.00454 9.10514 6.95915 6.92662 8.57791C6.92662 8.57791 4.74811 12.4962 4.74811 17.3222C4.74811 17.3222 6.01891 19.5008 9.36233 19.6067C9.36233 19.6067 9.92209 18.941 10.3759 18.3661C8.45461 17.7912 7.72844 16.5961 7.72844 16.5961C7.72844 16.5961 7.87972 16.702 8.15204 16.8533C8.16139 16.8533 8.17074 16.859 8.18366 16.867C8.19165 16.872 8.201 16.8777 8.21255 16.8835C8.23525 16.8986 8.25794 16.91 8.28064 16.9213C8.30333 16.9327 8.32602 16.944 8.34871 16.9592C8.72693 17.171 9.10514 17.3374 9.4531 17.4735C10.0734 17.7307 10.8147 17.9576 11.677 18.1241C12.8116 18.3359 14.143 18.4115 15.5953 18.1392C16.3064 18.003 17.0325 17.8064 17.789 17.4887C18.3185 17.292 18.9085 17.0045 19.5287 16.5961C19.5287 16.5961 18.7723 17.8215 16.7905 18.3812ZM14.7329 14.2511C14.7329 13.3282 15.4137 12.5869 16.276 12.5869C17.1232 12.5869 17.8191 13.3282 17.8191 14.2511C17.8191 15.1739 17.1384 15.9152 16.276 15.9152C15.4288 15.9152 14.7329 15.1739 14.7329 14.2511ZM9.21097 14.2511C9.21097 13.3282 9.89176 12.5869 10.7541 12.5869C11.6164 12.5869 12.3123 13.3282 12.2972 14.2511C12.2972 15.1739 11.6164 15.9152 10.7541 15.9152C9.90688 15.9152 9.21097 15.1739 9.21097 14.2511Z" fill="#191C1F"/>
</svg>
