<svg width="22" height="22" viewBox="0 0 22 22" fill="none" xmlns="http://www.w3.org/2000/svg">
<path id="monogram-instagram" d="M6.44426 0.0769314C5.27386 0.132151 4.4746 0.318931 3.77588 0.593491C3.05274 0.875311 2.43982 1.25349 1.82998 1.86553C1.22014 2.47757 0.844598 3.09093 0.564758 3.81517C0.293938 4.51543 0.110458 5.31535 0.0587578 6.48641C0.00705784 7.65747 -0.00438216 8.03389 0.00133784 11.0211C0.00705784 14.0082 0.0202578 14.3827 0.0770178 15.5561C0.132898 16.7263 0.319018 17.5254 0.593578 18.2243C0.875838 18.9474 1.25358 19.5601 1.86584 20.1702C2.4781 20.7803 3.09102 21.1549 3.81702 21.4352C4.51662 21.7056 5.31676 21.8899 6.4876 21.9412C7.65844 21.9925 8.0353 22.0043 11.0216 21.9986C14.0079 21.9929 14.3838 21.9797 15.5571 21.924C16.7304 21.8684 17.5252 21.6809 18.2244 21.4077C18.9475 21.1248 19.5607 20.7477 20.1703 20.1352C20.7799 19.5227 21.1552 18.9089 21.4348 18.1843C21.7059 17.4847 21.89 16.6845 21.9408 15.5146C21.9921 14.3404 22.0042 13.9655 21.9985 10.9788C21.9928 7.99209 21.9793 7.61765 21.9237 6.44461C21.868 5.27157 21.6817 4.47495 21.4073 3.77557C21.1246 3.05243 20.7473 2.44017 20.1353 1.82967C19.5233 1.21917 18.909 0.844071 18.1846 0.565111C17.4845 0.294291 16.6848 0.109711 15.514 0.0591114C14.3431 0.00851137 13.9663 -0.00446863 10.9789 0.00125137C7.99152 0.00697137 7.61752 0.0197314 6.44426 0.0769314ZM6.57274 19.9623C5.50024 19.9157 4.9179 19.7375 4.52982 19.5883C4.0159 19.3903 3.64982 19.1509 3.26306 18.7679C2.8763 18.3849 2.6387 18.0175 2.43806 17.5047C2.28736 17.1166 2.10586 16.5349 2.0557 15.4624C2.00114 14.3032 1.9897 13.9552 1.98332 11.0184C1.97694 8.08163 1.98816 7.73403 2.03898 6.57441C2.08474 5.50279 2.26404 4.91979 2.41298 4.53193C2.61098 4.01735 2.84946 3.65193 3.23336 3.26539C3.61726 2.87885 3.98356 2.64081 4.49682 2.44017C4.88446 2.28881 5.46614 2.10885 6.5382 2.05781C7.69826 2.00281 8.04586 1.99181 10.9822 1.98543C13.9185 1.97905 14.267 1.99005 15.4275 2.04109C16.4991 2.08773 17.0824 2.26527 17.4698 2.41509C17.9839 2.61309 18.3498 2.85091 18.7363 3.23547C19.1229 3.62003 19.3611 3.98501 19.5618 4.49937C19.7133 4.88591 19.8933 5.46737 19.9439 6.54009C19.9991 7.70015 20.0117 8.04797 20.0169 10.9841C20.0222 13.9202 20.0119 14.2689 19.9611 15.4281C19.9142 16.5006 19.7364 17.0832 19.5871 17.4717C19.3891 17.9854 19.1504 18.3517 18.7662 18.738C18.3821 19.1243 18.0163 19.3624 17.5028 19.563C17.1156 19.7141 16.5332 19.8945 15.4621 19.9456C14.302 20.0001 13.9544 20.0116 11.017 20.018C8.07952 20.0243 7.73302 20.0125 6.57296 19.9623M15.5402 5.12087C15.5406 5.38196 15.6184 5.63706 15.7639 5.8539C15.9093 6.07074 16.1158 6.23958 16.3572 6.33907C16.5985 6.43856 16.864 6.46424 17.12 6.41284C17.376 6.36145 17.611 6.23529 17.7952 6.05034C17.9795 5.86538 18.1048 5.62993 18.1553 5.37376C18.2057 5.11759 18.1791 4.85221 18.0787 4.61119C17.9783 4.37017 17.8087 4.16432 17.5914 4.0197C17.374 3.87507 17.1186 3.79815 16.8575 3.79867C16.5075 3.79937 16.1721 3.93905 15.9251 4.187C15.678 4.43495 15.5396 4.77086 15.5402 5.12087ZM5.35196 11.0109C5.35812 14.1305 7.89164 16.6537 11.0106 16.6478C14.1295 16.6418 16.6545 14.1085 16.6485 10.9889C16.6426 7.86933 14.1084 5.34549 10.989 5.35165C7.86964 5.35781 5.34602 7.89177 5.35196 11.0109ZM7.33328 11.007C7.33184 10.2818 7.54549 9.57241 7.9472 8.96862C8.34892 8.36483 8.92065 7.89373 9.59011 7.61488C10.2596 7.33602 10.9967 7.26195 11.7082 7.40203C12.4198 7.5421 13.0738 7.89003 13.5876 8.40181C14.1015 8.9136 14.452 9.56626 14.5949 10.2773C14.7378 10.9882 14.6666 11.7256 14.3904 12.3962C14.1142 13.0668 13.6454 13.6404 13.0432 14.0445C12.441 14.4486 11.7325 14.665 11.0073 14.6665C10.5257 14.6675 10.0487 14.5736 9.60346 14.3902C9.1582 14.2069 8.75342 13.9376 8.41224 13.5978C8.07107 13.2579 7.80018 12.8542 7.61505 12.4097C7.42992 11.9652 7.33417 11.4885 7.33328 11.007Z" fill="#191C1F"/>
</svg>
