<svg width="47" height="20" viewBox="0 0 47 20" fill="none" xmlns="http://www.w3.org/2000/svg">
<path id="monogram-dash_forum" fill-rule="evenodd" clip-rule="evenodd" d="M4.59205 0H10.1115C14.9606 0 15.8177 2.64466 15.134 6.36318C14.6704 8.8611 13.5165 10.7754 11.5789 11.6692C10.7051 12.0727 9.87803 12.2995 7.93706 12.2995H2.43097L2.88786 9.74154L7.72362 9.74487C10.6351 9.74821 11.4121 8.48758 11.789 7.38036C11.9291 6.96682 12.2592 5.68618 12.2692 4.92913C12.2926 3.45173 11.5655 2.56128 9.11431 2.56128L4.13515 2.55461L4.59205 0ZM27.5643 10.0851L27.1741 12.3062H32.4935C34.271 12.3062 35.4783 11.269 35.7918 9.49142C36.1053 7.71387 35.2548 6.67668 33.4773 6.67668H31.2228C30.8526 6.67668 30.6692 6.45324 30.7426 6.08305C30.7959 5.71287 31.0561 5.48942 31.4263 5.48942H35.9385L36.3454 3.26831H31.2262C29.4486 3.26831 28.2247 4.3055 27.9112 6.08305C27.5977 7.86061 28.4481 8.89779 30.2257 8.89779H32.4801C32.8503 8.89779 33.0337 9.12124 32.9604 9.49142C32.907 9.86161 32.6469 10.0851 32.2767 10.0851H27.5643ZM19.9964 12.3027C17.0716 12.3027 15.7543 10.7086 16.2745 7.78382C16.7748 4.85902 18.6624 3.26489 21.5905 3.26489H26.7764L25.1823 12.3027H19.9964ZM23.3647 5.48934H22.0307C20.4366 5.48934 19.4961 6.19302 19.2193 7.78382C18.9225 9.37795 19.5161 10.0816 21.1069 10.0816H22.5677L23.3647 5.48934ZM43.6985 7.04352L42.7714 12.3028L45.7729 12.3062L46.7 7.04686C47.1636 4.41554 46.2164 3.2683 43.5884 3.2683H41.3406L41.9176 0H38.9161L36.7484 12.3028H39.7499L40.9338 5.56278H42.4078C43.445 5.56278 43.8652 6.00634 43.6985 7.04352ZM2.21451 4.86572C0.788562 4.86572 0.569064 5.78275 0.432128 6.35485L0.426949 6.37648C0.246859 7.12018 0.186829 7.42367 0.186829 7.42367H5.83632C7.26227 7.42367 7.48176 6.50664 7.6187 5.93454L7.62388 5.91291C7.80397 5.16587 7.86067 4.86572 7.86067 4.86572H2.21451ZM22.2313 17.202L22.5448 15.6546H25.3128L25.4729 14.8608H21.7577L20.7405 19.9501H21.6843L22.0779 18.0024H24.5358L24.6959 17.202H22.2313ZM26.1027 19.7865C25.8192 19.6431 25.5991 19.443 25.4457 19.1862C25.2889 18.9294 25.2122 18.6326 25.2122 18.2925C25.2122 17.8622 25.3089 17.472 25.5057 17.1285C25.7025 16.785 25.9759 16.5149 26.3261 16.3181C26.6763 16.1214 27.0731 16.0247 27.5134 16.0247C27.8902 16.0247 28.2237 16.0947 28.5105 16.2348C28.7973 16.3748 29.0175 16.5749 29.1709 16.8317C29.3243 17.0885 29.4043 17.3853 29.4043 17.7255C29.4043 18.1557 29.3043 18.5459 29.1075 18.8894C28.9074 19.2329 28.6339 19.5064 28.2838 19.7032C27.9336 19.9033 27.5367 20 27.0965 20C26.7196 20 26.3861 19.9299 26.1027 19.7865ZM27.8402 19.0362C28.0403 18.9128 28.2004 18.7393 28.3171 18.5192C28.4338 18.2991 28.4905 18.049 28.4905 17.7655C28.4905 17.4587 28.4005 17.2219 28.2204 17.0485C28.0403 16.8751 27.7902 16.7917 27.4633 16.7917C27.2065 16.7917 26.9764 16.8551 26.7763 16.9785C26.5762 17.1019 26.4162 17.2753 26.2994 17.4954C26.1827 17.7155 26.126 17.9656 26.126 18.2491C26.126 18.5559 26.2161 18.7927 26.3961 18.9661C26.5762 19.1395 26.8264 19.2229 27.1532 19.2229C27.41 19.2229 27.6401 19.1596 27.8402 19.0362ZM32.8994 16.0247C32.5592 16.0247 32.2658 16.0647 32.0223 16.1481C31.7755 16.2314 31.5687 16.3715 31.3987 16.5683L31.502 16.068H30.6349L29.8646 19.9466H30.775L31.1619 18.0357C31.3153 17.2553 31.7655 16.8651 32.5059 16.8651C32.5759 16.8651 32.6493 16.8751 32.7327 16.8884L32.8994 16.0247ZM37.4551 16.068L36.678 19.95H35.8142L35.9009 19.5198C35.5508 19.8399 35.1139 20 34.5836 20C34.1567 20 33.8166 19.8833 33.5631 19.6532C33.3097 19.423 33.1829 19.0995 33.1829 18.6827C33.1829 18.5293 33.1996 18.3725 33.2329 18.2158L33.6632 16.0647H34.5736L34.1434 18.1958C34.1234 18.2925 34.1134 18.3925 34.1134 18.4926C34.1134 18.7194 34.1768 18.8961 34.3068 19.0162C34.4335 19.1362 34.627 19.1996 34.8838 19.1996C35.2139 19.1996 35.4874 19.1062 35.7042 18.9195C35.921 18.7327 36.0677 18.4526 36.1411 18.079L36.5479 16.0647H37.4551V16.068ZM44.8425 17.3186C44.8425 16.9017 44.7191 16.5815 44.469 16.3581C44.2189 16.1346 43.8754 16.0246 43.4418 16.0212C42.8182 16.0212 42.3046 16.2347 41.9077 16.6616C41.801 16.4515 41.6409 16.2947 41.4342 16.1847C41.2274 16.0746 40.9806 16.0212 40.7005 16.0212C40.1802 16.0212 39.7566 16.178 39.4265 16.4881L39.5065 16.0679H38.6428L37.8724 19.9499H38.7795L39.1864 17.9355C39.3398 17.1885 39.7366 16.815 40.3803 16.815C40.8739 16.815 41.1207 17.0451 41.1207 17.512C41.1207 17.6187 41.1107 17.7221 41.0907 17.8188L40.6604 19.9499H41.5709L41.9778 17.9289C42.1312 17.1852 42.528 16.815 43.1717 16.815C43.6653 16.815 43.9121 17.0451 43.9121 17.512C43.9121 17.6187 43.9021 17.7221 43.882 17.8188L43.4518 19.9499H44.3623L44.7925 17.7988C44.8259 17.632 44.8425 17.4753 44.8425 17.3186Z" fill="#191C1F"/>
</svg>
