<svg width="29" height="28" viewBox="0 0 29 28" fill="none" xmlns="http://www.w3.org/2000/svg">
<path id="monogram-github" fill-rule="evenodd" clip-rule="evenodd" d="M14.4987 0.345703C6.76882 0.345703 0.5 6.61367 0.5 14.3461C0.5 20.5316 4.51105 25.7785 10.0743 27.6298C10.7747 27.7587 11.03 27.3264 11.03 26.9551C11.03 26.6234 11.0179 25.7424 11.0111 24.5744C7.1169 25.4201 6.29526 22.6974 6.29526 22.6974C5.65841 21.0799 4.74052 20.6493 4.74052 20.6493C3.46939 19.7813 4.83677 19.7985 4.83677 19.7985C6.24197 19.8973 6.9811 21.2415 6.9811 21.2415C8.22988 23.3807 10.2582 22.7627 11.0558 22.4043C11.183 21.5002 11.5448 20.8831 11.9444 20.5333C8.8358 20.1801 5.56731 18.9786 5.56731 13.6139C5.56731 12.0858 6.11306 10.8353 7.00861 9.85723C6.86422 9.50314 6.38378 8.07903 7.14611 6.15214C7.14611 6.15214 8.32098 5.7757 10.9956 7.58742C12.112 7.2763 13.3101 7.1216 14.5004 7.11559C15.6899 7.1216 16.8871 7.2763 18.0053 7.58742C20.6782 5.7757 21.8513 6.15214 21.8513 6.15214C22.6153 8.07903 22.1349 9.50314 21.9914 9.85723C22.8887 10.8353 23.4301 12.0858 23.4301 13.6139C23.4301 18.9923 20.1565 20.1758 17.0384 20.5221C17.5403 20.9544 17.9881 21.8087 17.9881 23.1151C17.9881 24.9861 17.9709 26.4962 17.9709 26.9551C17.9709 27.3298 18.2236 27.7656 18.9335 27.6289C24.4924 25.7734 28.5 20.5299 28.5 14.3461C28.5 6.61367 22.2312 0.345703 14.4987 0.345703Z" fill="#191C1F"/>
</svg>
