<svg width="28" height="28" viewBox="0 0 28 28" fill="none" xmlns="http://www.w3.org/2000/svg">
<path fill-rule="evenodd" clip-rule="evenodd" d="M28 14C28 21.732 21.732 28 14 28C6.26801 28 0 21.732 0 14C0 6.26801 6.26801 0 14 0C21.732 0 28 6.26801 28 14ZM21.2173 12.0305C22.3483 11.9922 23.2949 12.8727 23.3366 14.0002C23.3506 14.7867 22.9086 15.5105 22.2057 15.862C22.2196 16.0673 22.2196 16.2726 22.2057 16.4779C22.2057 19.6169 18.5517 22.1642 14.0451 22.1642C9.53849 22.1642 5.8845 19.6134 5.8845 16.4779C5.87058 16.2726 5.87058 16.0673 5.8845 15.862C5.67918 15.7715 5.49474 15.6427 5.33466 15.4931C4.5099 14.7205 4.47162 13.426 5.24418 12.6047C6.01674 11.78 7.31129 11.7417 8.13257 12.5142C9.74729 11.4215 11.6439 10.823 13.5927 10.7916L14.6262 5.93357V5.92661C14.6784 5.68997 14.9116 5.54381 15.1448 5.59601L18.576 6.28157C18.7953 5.89877 19.192 5.64125 19.6339 5.59601C20.403 5.51249 21.0921 6.06929 21.1756 6.83837C21.2591 7.60745 20.7023 8.29648 19.9332 8.38C19.1641 8.46352 18.4751 7.90672 18.3916 7.13765L15.3953 6.50777L14.487 10.8752C16.4115 10.9169 18.2837 11.512 19.8775 12.5978C20.2395 12.2532 20.7162 12.0479 21.2173 12.0305ZM10.7391 14.0002C9.96653 14.0002 9.33665 14.6301 9.33665 15.4026C9.33665 16.1752 9.96305 16.7981 10.7391 16.8051C11.5116 16.8051 12.1415 16.1752 12.1415 15.4026C12.1415 14.6301 11.5116 14.0002 10.7391 14.0002ZM14.0103 20.3303C15.2561 20.3825 16.4741 19.9997 17.4694 19.2515V19.3072C17.6225 19.1575 17.626 18.907 17.4763 18.7539C17.3267 18.6007 17.0761 18.5973 16.923 18.7469C16.0704 19.3559 15.0404 19.6552 13.9964 19.5995C12.9524 19.6482 11.9258 19.335 11.0836 18.7191C10.9409 18.6042 10.7426 18.6042 10.6034 18.7191C10.4433 18.8513 10.4189 19.0914 10.5512 19.2515C11.5464 19.9997 12.7644 20.3825 14.0103 20.3303ZM15.8164 15.4513C15.8164 16.2239 16.4463 16.8538 17.2188 16.8538L17.2084 16.906H17.278C18.0505 16.8747 18.6526 16.2239 18.6213 15.4513C18.6213 14.6788 17.9914 14.0489 17.2188 14.0489C16.4463 14.0489 15.8164 14.6788 15.8164 15.4513Z" fill="#191C1F"/>
</svg>
