<svg width="16" height="16" viewBox="0 0 16 16" fill="none" xmlns="http://www.w3.org/2000/svg">
<g id="Layer_1">
<g id="Group">
<path id="Vector" d="M5.65646 4.77207C5.76271 4.87832 5.91896 4.89082 6.04396 4.80957C6.61271 4.45957 7.28771 4.25332 8.00646 4.25332C8.72521 4.25332 9.34396 4.44082 9.90021 4.76582C10.069 4.86582 10.2752 4.84707 10.4065 4.70957L12.5252 2.59082C12.7002 2.41582 12.6877 2.12832 12.4877 1.97832C11.2377 1.04707 9.68771 0.49707 8.00646 0.49707C6.32521 0.49707 4.77521 1.04707 3.52521 1.97832C3.33146 2.12207 3.31896 2.41582 3.48771 2.59082L5.66271 4.75957L5.65646 4.77207Z" fill="#008DE4"/>
<path id="Vector_2" d="M4.80625 9.96595C4.45625 9.3972 4.25 8.7222 4.25 8.00345C4.25 7.2847 4.45 6.61595 4.80625 6.04095C4.88125 5.91595 4.86875 5.7597 4.76875 5.6597L2.51875 3.4097C2.3875 3.27845 2.16875 3.2847 2.05625 3.4347C1.075 4.6972 0.5 6.27845 0.5 8.00345C0.5 9.72845 1.075 11.3097 2.05 12.5785C2.1625 12.7222 2.38125 12.7347 2.5125 12.6035L4.7625 10.3535C4.8625 10.2535 4.875 10.091 4.8 9.9722L4.80625 9.96595Z" fill="#008DE4"/>
<path id="Vector_3" d="M10.3436 11.2346C10.2373 11.1346 10.0811 11.1221 9.95609 11.1971C9.38734 11.5471 8.71234 11.7534 7.99359 11.7534C7.27484 11.7534 6.60609 11.5534 6.03109 11.1971C5.90609 11.1221 5.74984 11.1346 5.64359 11.2346L3.39359 13.4846C3.26234 13.6159 3.26859 13.8346 3.41859 13.9534C4.68109 14.9284 6.26859 15.5034 7.99359 15.5034C9.71859 15.5034 11.2998 14.9284 12.5686 13.9534C12.7186 13.8409 12.7248 13.6159 12.5936 13.4846L10.3436 11.2346Z" fill="#008DE4"/>
<path id="Vector_4" d="M13.9498 3.42835C13.8373 3.27835 13.6123 3.2721 13.481 3.40335L11.231 5.65335C11.1248 5.7596 11.1185 5.91585 11.1935 6.04085C11.5435 6.6096 11.7498 7.2846 11.7498 8.00335C11.7498 8.7221 11.5498 9.39085 11.1935 9.96585C11.1185 10.0909 11.131 10.2471 11.231 10.3534L13.481 12.6034C13.6123 12.7346 13.831 12.7284 13.9498 12.5784C14.9248 11.3159 15.4998 9.72835 15.4998 8.00335C15.4998 6.27835 14.9248 4.6971 13.9498 3.42835Z" fill="#008DE4"/>
</g>
</g>
</svg>
